<svg width="12" height="14" viewBox="0 0 12 14" fill="none" xmlns="http://www.w3.org/2000/svg">
  <path fill-rule="evenodd" clip-rule="evenodd" d="M1.87586 6.45734C1.87586 6.45734 1.53803 5.88155 1.40094 5.58932C1.26566 5.29673 0.909028 4.30465 1.42807 3.25833C1.52393 3.06592 1.67259 2.88472 1.97063 2.66193L5.78228 0L1.87586 6.45734ZM1.68537 10.544C0.778222 9.88968 0.134385 8.74932 0.0338295 7.48129C-0.0207893 6.65776 -0.000167069 6.25738 0.0320213 5.92139C0.0804909 5.4447 0.279427 4.94486 0.474389 4.50724C0.474389 4.50724 0.576028 4.29277 0.632088 4.18896C0.600388 4.3876 0.598809 4.58988 0.627389 4.78898C0.696648 5.22834 0.843629 5.65184 1.06143 6.03965C3.22045 9.70812 5.7777 13.3947 5.7777 13.3947L1.68537 10.544ZM10.5979 7.80601C10.4608 7.51377 10.123 6.93799 10.123 6.93799L6.21655 13.3953L10.0286 10.7338C10.3266 10.511 10.4753 10.3298 10.5711 10.1374C11.0916 9.09068 10.7332 8.0986 10.5979 7.80601ZM10.315 2.85121C11.2221 3.50548 11.866 4.64584 11.9665 5.91387C12.0215 6.7374 11.9991 7.13778 11.9683 7.47413C11.9199 7.95082 11.7209 8.45065 11.526 8.88828C11.526 8.88828 11.4243 9.10275 11.3683 9.20656C11.4 9.00792 11.4016 8.80564 11.373 8.60654C11.3037 8.16718 11.1567 7.74368 10.9389 7.35587C8.77991 3.68704 6.22266 0.000488281 6.22266 0.000488281L10.315 2.85121Z" fill="white"/>
</svg>
