<svg width="14" height="14" viewBox="0 0 14 14" fill="none" xmlns="http://www.w3.org/2000/svg">
    <path d="M13.5882 0.411765C13.2081 0.0316742 12.5747 0.0316742 12.0679 0.411765L7 5.47964L1.80543 0.285068C1.42534 -0.0950226 0.791855 -0.0950226 0.285068 0.285068C-0.0950226 0.665158 -0.0950226 1.42534 0.285068 1.80543L5.47964 7L0.285068 12.1946C-0.0950226 12.5747 -0.0950226 13.3348 0.285068 13.7149C0.665158 14.095 1.42534 14.095 1.80543 13.7149L7 8.52036L12.1946 13.7149C12.5747 14.095 13.3348 14.095 13.7149 13.7149C14.095 13.3348 14.095 12.7014 13.7149 12.1946L8.52036 7L13.7149 1.80543C14.095 1.42534 14.095 0.791855 13.5882 0.411765Z" fill="white"/>
</svg>
