<svg viewBox="0 0 30 30" fill="none" xmlns="http://www.w3.org/2000/svg">
<mask id="mask0_6291_58465" style="mask-type:alpha" maskUnits="userSpaceOnUse" x="0" y="0" width="30" height="30">
<circle cx="15" cy="15" r="15" fill="#C4C4C4"/>
</mask>
<g mask="url(#mask0_6291_58465)">
<circle cx="15" cy="15" r="15" fill="white"/>
<path d="M23.3812 9.4499L16.3781 6.25771C15.6187 5.91084 14.3766 5.91084 13.6172 6.25771L6.61875 9.4499C5.79375 9.8249 5.79375 10.439 6.61875 10.814L13.5562 13.978C14.3484 14.339 15.6516 14.339 16.4437 13.978L23.3812 10.814C24.2062 10.439 24.2062 9.8249 23.3812 9.4499ZM13.5562 20.5874L8.87813 18.4546C8.68125 18.3655 8.45156 18.3655 8.25469 18.4546L6.61875 19.1999C5.79375 19.5749 5.79375 20.189 6.61875 20.564L13.5562 23.728C14.3484 24.089 15.6516 24.089 16.4437 23.728L23.3812 20.564C24.2062 20.189 24.2062 19.5749 23.3812 19.1999L21.7453 18.4546C21.5484 18.3655 21.3188 18.3655 21.1219 18.4546L16.4437 20.5874C15.6516 20.9483 14.3484 20.9483 13.5562 20.5874Z" fill="url(#paint0_linear_6291_58465)"/>
<path d="M23.382 14.325L21.8961 13.65C21.6992 13.561 21.4742 13.561 21.2773 13.65L16.2148 15.9422C15.4977 16.186 14.4992 16.186 13.782 15.9422L8.71953 13.65C8.52266 13.561 8.29766 13.561 8.10078 13.65L6.61484 14.325C5.78984 14.7 5.78984 15.3141 6.61484 15.6891L13.5523 18.8532C14.3445 19.2141 15.6477 19.2141 16.4398 18.8532L23.3773 15.6891C24.207 15.3141 24.207 14.7 23.382 14.325Z" fill="url(#paint1_linear_6291_58465)"/>
</g>
<defs>
<linearGradient id="paint0_linear_6291_58465" x1="17.7809" y1="22.1333" x2="6.15981" y2="3.81853" gradientUnits="userSpaceOnUse">
<stop offset="0.0625" stop-color="#277EFF"/>
<stop offset="0.565912" stop-color="#12DCF6"/>
</linearGradient>
<linearGradient id="paint1_linear_6291_58465" x1="17.7797" y1="18.5497" x2="16.2926" y2="10.9333" gradientUnits="userSpaceOnUse">
<stop offset="0.0625" stop-color="#277EFF"/>
<stop offset="0.565912" stop-color="#12DCF6"/>
</linearGradient>
</defs>
</svg>
