<svg width="20" height="20" viewBox="0 0 20 20" fill="none" xmlns="http://www.w3.org/2000/svg">
<path fill-rule="evenodd" clip-rule="evenodd" d="M2.92893 17.0711C1.05357 15.1957 0 12.6522 0 10C0 7.34784 1.05357 4.8043 2.92893 2.92893C4.8043 1.05357 7.34784 0 10 0C12.6522 0 15.1957 1.05357 17.0711 2.92893C18.9464 4.8043 20 7.34784 20 10C20 12.6522 18.9464 15.1957 17.0711 17.0711C15.1957 18.9464 12.6522 20 10 20C7.34784 20 4.8043 18.9464 2.92893 17.0711ZM10.0001 5.48875C7.21312 5.48875 5.25809 6.68466 5.25809 6.68466C6.32921 5.72795 8.20106 5.17678 8.20106 5.17678L8.02426 5C6.26682 5.0312 4.67575 6.2479 4.67575 6.2479C2.88709 9.98118 3.00147 13.2049 3.00147 13.2049C4.45737 15.0872 6.62037 14.952 6.62037 14.952L7.35873 14.0161C6.05882 13.7353 5.2373 12.581 5.2373 12.581C5.2373 12.581 7.19233 13.9121 10.0001 13.9121C12.8079 13.9121 14.7629 12.581 14.7629 12.581C14.7629 12.581 13.9414 13.7353 12.6415 14.0161L13.3798 14.952C13.3798 14.952 15.5428 15.0872 16.9987 13.2049C16.9987 13.2049 17.1131 9.98118 15.3245 6.2479C15.3245 6.2479 13.7334 5.0312 11.9759 5L11.7991 5.17678C11.7991 5.17678 13.671 5.72795 14.7421 6.68466C14.7421 6.68466 12.7871 5.48875 10.0001 5.48875ZM7.84748 9.43003C8.52341 9.43003 9.07458 10.0228 9.06418 10.7507C9.06418 11.4683 8.52341 12.0714 7.84748 12.0714C7.18193 12.0714 6.64119 11.4683 6.64119 10.7507C6.64119 10.0228 7.17154 9.43003 7.84748 9.43003ZM12.1839 9.43003C12.8599 9.43003 13.4006 10.0228 13.4006 10.7507C13.4006 11.4683 12.8599 12.0714 12.1839 12.0714C11.5184 12.0714 10.9776 11.4683 10.9776 10.7507C10.9776 10.0228 11.508 9.43003 12.1839 9.43003Z" fill="#A0B3EE" fill-opacity="0.5"/>
</svg>
