<svg viewBox="0 0 20 20" xmlns="http://www.w3.org/2000/svg">
<path fill-rule="evenodd" clip-rule="evenodd" d="M10 20C15.5228 20 20 15.5228 20 10C20 4.47715 15.5228 0 10 0C4.47715 0 0 4.47715 0 10C0 15.5228 4.47715 20 10 20ZM6 7.14286C6.00002 7.03867 6.03835 6.93877 6.10655 6.86511L8.652 4.11511C8.72018 4.04143 8.81266 4.00002 8.90909 4H9.27273H12.1818C12.664 4 13.1265 4.20695 13.4675 4.57533C13.8084 4.9437 14 5.44332 14 5.96429V13.0357C14 13.5567 13.8084 14.0563 13.4675 14.4247C13.1265 14.793 12.664 15 12.1818 15H7.81818C7.33597 15 6.87351 14.793 6.53253 14.4247C6.19156 14.0563 6 13.5567 6 13.0357V7.53571V7.14286ZM9.52986 7.81351C9.46166 7.88718 9.36917 7.92857 9.27273 7.92857H6.72727V13.0357C6.72727 13.3483 6.84221 13.6481 7.04679 13.8691C7.25138 14.0901 7.52885 14.2143 7.81818 14.2143H12.1818C12.4711 14.2143 12.7486 14.0901 12.9532 13.8691C13.1578 13.6481 13.2727 13.3483 13.2727 13.0357V5.96429C13.2727 5.65171 13.1578 5.35193 12.9532 5.13091C12.7486 4.90988 12.4711 4.78571 12.1818 4.78571H9.63636V7.53571C9.63636 7.63991 9.59805 7.73983 9.52986 7.81351ZM6.87782 7.14286H8.90909V4.94836L6.87782 7.14286Z" />
</svg>
