<svg width="13" height="21" viewBox="0 0 13 21" fill="none" xmlns="http://www.w3.org/2000/svg">
    <path d="M8.53906 9.64062L4.32031 8.39062C3.8125 8.27344 3.5 7.80469 3.5 7.29688C3.5 6.67188 4.00781 6.125 4.63281 6.125H7.21094C7.71875 6.125 8.1875 6.28125 8.57812 6.55469C8.8125 6.71094 9.125 6.67188 9.32031 6.47656L10.6875 5.14844C10.9609 4.875 10.9219 4.44531 10.6094 4.17188C9.67188 3.42969 8.46094 3.03906 7.25 3V1.125C7.25 0.8125 6.9375 0.5 6.625 0.5H5.375C5.02344 0.5 4.75 0.8125 4.75 1.125V3H4.63281C2.13281 3 0.140625 5.14844 0.375 7.6875C0.53125 9.48438 1.89844 10.9688 3.65625 11.4766L7.64062 12.6484C8.14844 12.7656 8.5 13.2344 8.5 13.7422C8.5 14.3672 7.95312 14.875 7.32812 14.875H4.75C4.28125 14.875 3.8125 14.7578 3.42188 14.4844C3.14844 14.3281 2.83594 14.3672 2.64062 14.5625L1.27344 15.8906C1 16.1641 1.03906 16.5938 1.35156 16.8281C2.32812 17.6094 3.5 18 4.75 18V19.875C4.75 20.2266 5.02344 20.5 5.375 20.5H6.625C6.9375 20.5 7.25 20.2266 7.25 19.875V18C9.04688 17.9609 10.7656 16.9062 11.3516 15.1875C12.2109 12.7656 10.8047 10.3047 8.53906 9.64062Z" fill="#12DCF6"/>
</svg>
