<svg width="22" height="22" viewBox="0 0 22 22" fill="none" xmlns="http://www.w3.org/2000/svg">
  <path d="M12.9688 2.09375C12.9688 1.02734 12.0664 0.125 11 0.125C9.89258 0.125 9.03125 1.02734 9.03125 2.09375C9.03125 3.20117 9.89258 4.0625 11 4.0625C12.0664 4.0625 12.9688 3.20117 12.9688 2.09375ZM11 17.1875C9.89258 17.1875 9.03125 18.0898 9.03125 19.1562C9.03125 20.2637 9.89258 21.125 11 21.125C12.0664 21.125 12.9688 20.2637 12.9688 19.1562C12.9688 18.0898 12.0664 17.1875 11 17.1875ZM19.5312 8.65625C18.4238 8.65625 17.5625 9.55859 17.5625 10.625C17.5625 11.7324 18.4238 12.5938 19.5312 12.5938C20.5977 12.5938 21.5 11.7324 21.5 10.625C21.5 9.55859 20.5977 8.65625 19.5312 8.65625ZM4.4375 10.625C4.4375 9.55859 3.53516 8.65625 2.46875 8.65625C1.36133 8.65625 0.5 9.55859 0.5 10.625C0.5 11.7324 1.36133 12.5938 2.46875 12.5938C3.53516 12.5938 4.4375 11.7324 4.4375 10.625ZM4.92969 14.7266C3.86328 14.7266 2.96094 15.5879 2.96094 16.6953C2.96094 17.7617 3.86328 18.6641 4.92969 18.6641C6.03711 18.6641 6.89844 17.7617 6.89844 16.6953C6.89844 15.5879 6.03711 14.7266 4.92969 14.7266ZM17.0293 14.7266C15.9219 14.7266 15.0605 15.5879 15.0605 16.6953C15.0605 17.7617 15.9219 18.6641 17.0293 18.6641C18.0957 18.6641 18.998 17.7617 18.998 16.6953C18.998 15.5879 18.0957 14.7266 17.0293 14.7266ZM4.92969 2.62695C3.86328 2.62695 2.96094 3.5293 2.96094 4.5957C2.96094 5.70312 3.86328 6.56445 4.92969 6.56445C6.03711 6.56445 6.89844 5.70312 6.89844 4.5957C6.89844 3.5293 6.03711 2.62695 4.92969 2.62695Z" fill="#052835"/>
</svg>
