<svg width="20" height="20" viewBox="0 0 20 20" fill="#7E96B8" xmlns="http://www.w3.org/2000/svg">
<path fill-rule="evenodd" clip-rule="evenodd" d="M10 20C15.5228 20 20 15.5228 20 10C20 4.47715 15.5228 0 10 0C4.47715 0 0 4.47715 0 10C0 15.5228 4.47715 20 10 20ZM3 10C3 7.79095 4.77867 6 6.97275 6C9.16692 6 10.9455 7.79082 10.9455 10C10.9455 12.2092 9.1667 14 6.97275 14C4.7788 14 3 12.209 3 10ZM11.3308 10.0001C11.3308 7.92068 12.22 6.23432 13.317 6.23432H13.3171C14.4142 6.23432 15.3034 7.92008 15.3034 10.0001H15.3036C15.3036 12.0796 14.4143 13.7659 13.3172 13.7659C12.2201 13.7659 11.3308 12.0795 11.3308 10.0001ZM15.6891 10.0001C15.6891 8.13703 16.0018 6.62655 16.3875 6.62655H16.3876C16.7733 6.62655 17.0862 8.1369 17.0862 10C17.0862 11.8627 16.7735 13.3736 16.3875 13.3736C16.0016 13.3736 15.6891 11.8631 15.6891 10.0001Z"/>
</svg>
