<svg viewBox="0 0 82 75" fill="none" xmlns="http://www.w3.org/2000/svg">
<path d="M77.0668 0.00506758L45.3945 23.4375L51.283 9.62837L77.0668 0V0.00506758Z" fill="#E17726"/>
<path d="M4.02288 0.00500488L35.4165 23.6604L29.8067 9.62324L4.02288 0.0100725V0.00500488ZM65.6597 54.3496L57.2323 67.2212L75.2779 72.1925L80.4469 54.6334L65.6597 54.3496ZM0.663086 54.6232L5.79653 72.1823L23.8117 67.2161L15.4148 54.3445L0.663086 54.6232Z" fill="#E27625"/>
<path d="M22.8548 32.5948L17.8379 40.1556L35.696 40.9664L35.1031 21.7502L22.8548 32.5948ZM58.2416 32.5948L45.8007 21.5272L45.3953 40.9613L63.2534 40.1505L58.2365 32.5847L58.2416 32.5948ZM23.8176 67.2164L34.6217 61.9968L25.3176 54.7502L23.8176 67.2164ZM46.4696 61.9968L57.2433 67.2164L55.7737 54.7502L46.4696 61.9968Z" fill="#E27625"/>
<path d="M57.2421 67.2214L46.4684 62.0018L47.3451 69.0001L47.2488 71.9697L57.2421 67.2214ZM23.8164 67.2214L33.8401 71.9697L33.7792 69.0001L34.6205 62.0018L23.8164 67.2214Z" fill="#D5BFB2"/>
<path d="M34.0268 50.1234L25.0674 47.4934L31.3968 44.5846L34.0319 50.1184L34.0268 50.1234ZM47.0606 50.1234L49.6958 44.5897L56.0505 47.4984L47.0606 50.1234Z" fill="#233447"/>
<path d="M23.8237 67.2265L25.3896 54.3548L15.4268 54.6336L23.8237 67.2265ZM55.7088 54.3396L57.2443 67.2113L65.6717 54.6234L55.7088 54.3396ZM63.2544 40.1555L45.3963 40.9663L47.0585 50.1285L49.6886 44.5947L56.0484 47.4984L63.2544 40.1555ZM25.0805 47.4984L31.4048 44.5947L34.0399 50.1234L35.697 40.9714L17.844 40.1606L25.0805 47.4934V47.4984Z" fill="#CC6228"/>
<path d="M17.8438 40.1555L25.3285 54.7501L25.0752 47.5035L17.8438 40.1555ZM56.0532 47.4984L55.7745 54.7501L63.2593 40.1555L56.0532 47.5035V47.4984ZM35.6917 40.9714L34.0296 50.1234L36.1275 60.9376L36.5988 46.6876L35.6866 40.9663L35.6917 40.9714ZM45.4012 40.9714L44.5245 46.6572L44.9654 60.9376L47.0633 50.1234L45.4012 40.9714Z" fill="#E27525"/>
<path d="M47.0606 50.1285L44.9626 60.9377L46.4677 62.0018L55.7718 54.7552L56.0505 47.5035L47.0606 50.1285ZM25.0674 47.5035L25.3208 54.7502L34.6248 61.9968L36.1248 60.9377L34.0268 50.1285L25.0674 47.5035Z" fill="#F5841F"/>
<path d="M47.2488 71.9697L47.34 69.0001L46.5292 68.3109H34.5596L33.7792 69.0001L33.8401 71.9697L23.8164 67.2163L27.3232 70.0896L34.433 75.0001H46.6205L53.7657 70.0896L57.2421 67.2163L47.2488 71.9697Z" fill="#C0AC9D"/>
<path d="M46.4704 62.0017L44.9654 60.9375H36.1275L34.6275 62.0017L33.7812 69.0051L34.5617 68.3159H46.5363L47.3471 69.0051L46.4755 62.0017H46.4704Z" fill="#161616"/>
<path d="M78.4257 24.973L81.0861 12.0355L77.0777 0.00506758L46.4696 22.6571L58.2416 32.5946L74.8784 37.4392L78.5422 33.1571L76.9459 32.0017L79.4797 29.6909L77.5388 28.1909L80.0777 26.25L78.4206 24.973H78.4257ZM0.00506758 12.0355L2.70101 24.973L0.97804 26.25L3.5473 28.1909L1.60135 29.6909L4.1402 32.0017L2.54392 33.1571L6.20777 37.4392L22.8446 32.5946L34.6267 22.6622L4.01858 0L0 12.0355H0.00506758Z" fill="#763E1A"/>
<path d="M74.8827 37.4394L58.2408 32.5948L63.2577 40.1556L55.7678 54.7502L65.6648 54.6286H80.4519L74.8776 37.4394H74.8827ZM22.8438 32.5948L6.207 37.4394L0.663086 54.6286H15.4148L25.3168 54.7502L17.832 40.1556L22.8438 32.5948ZM45.3996 40.9664L46.4638 22.6522L51.2931 9.62354H29.8016L34.6259 22.6522L35.6901 40.9664L36.0955 46.7181L36.1259 60.9326H44.9638L44.9942 46.7181L45.3996 40.9664Z" fill="#F5841F"/>
</svg>