<svg viewBox="0 0 25 24" fill="#7E96B8" xmlns="http://www.w3.org/2000/svg">
<path d="M13.4644 17.931C14.6536 17.9282 15.7931 17.4538 16.633 16.6119C17.4729 15.7701 17.9445 14.6294 17.9445 13.4403V10.5512C17.9389 9.36572 17.4647 8.23057 16.6255 7.39331C15.7862 6.55605 14.6499 6.08461 13.4644 6.0818H10.5647C9.3755 6.08179 8.23487 6.55346 7.39299 7.39333C6.55112 8.2332 6.07673 9.37271 6.0739 10.5619V13.4616C6.0739 13.483 6.0739 13.5044 6.0739 13.5258H0.000654221V8.56669C0.000654221 6.29503 0.902922 4.11639 2.50903 2.50988C4.11513 0.903379 6.29356 0.000567064 8.56521 0H15.4489C17.7208 0.000566901 19.8994 0.90331 21.5059 2.50975C23.1123 4.1162 24.0151 6.29484 24.0156 8.56669V15.4354C24.0151 17.7071 23.1122 19.8855 21.5057 21.4916C19.8992 23.0977 17.7206 24 15.4489 24H12.0637V17.931H13.4644Z" />
<path d="M6.07609 13.5152C6.09238 14.6916 6.57106 15.8144 7.40862 16.6408C8.24617 17.4671 9.37531 17.9306 10.5519 17.9311H12.0488V24.0001H8.56527C7.44016 24.0015 6.32582 23.7809 5.28609 23.351C4.24635 22.9211 3.30164 22.2903 2.50607 21.4947C1.7105 20.6991 1.0797 19.7544 0.649785 18.7147C0.219874 17.6749 -0.000693321 16.5606 0.000713348 15.4355V10.7993H6.07609V13.5152Z" />
</svg>
