<svg width="20" height="20" viewBox="0 0 20 20" fill="none" xmlns="http://www.w3.org/2000/svg">
  <path d="M12.2214 13.0243C12.3405 13.1433 12.3405 13.2586 12.2214 13.37C11.7605 13.831 11.02 14.0614 10 14.0614C8.98 14.0614 8.23952 13.831 7.77857 13.37C7.65952 13.2586 7.65952 13.1433 7.77857 13.0243C7.82333 12.9795 7.87905 12.9571 7.94571 12.9571C8.01238 12.9571 8.0681 12.9795 8.11286 13.0243C8.47 13.389 9.09857 13.5714 9.99857 13.5714C10.891 13.5714 11.5195 13.389 11.8843 13.0243C11.929 12.9795 11.9848 12.9571 12.0514 12.9571C12.1181 12.9571 12.1738 12.9795 12.2186 13.0243H12.2214ZM8.79429 11.0043C8.79429 11.2795 8.69762 11.5138 8.50429 11.7071C8.31095 11.9005 8.07667 11.9971 7.80143 11.9971C7.52619 11.9971 7.29 11.9005 7.09286 11.7071C6.89571 11.5138 6.79714 11.2795 6.79714 11.0043C6.79714 10.7214 6.89571 10.4833 7.09286 10.29C7.29 10.0967 7.52619 10 7.80143 10C8.07667 10 8.31095 10.0986 8.50429 10.2957C8.69762 10.4929 8.79429 10.729 8.79429 11.0043ZM13.2029 11.0043C13.2029 11.2795 13.1043 11.5138 12.9071 11.7071C12.71 11.9005 12.4738 11.9971 12.1986 11.9971C11.9233 11.9971 11.689 11.9005 11.4957 11.7071C11.3024 11.5138 11.2057 11.2795 11.2057 11.0043C11.2057 10.729 11.3024 10.4929 11.4957 10.2957C11.689 10.0986 11.9233 10 12.1986 10C12.4738 10 12.71 10.0967 12.9071 10.29C13.1043 10.4833 13.2029 10.7214 13.2029 11.0043ZM16.0043 9.66571C16.0043 9.30095 15.8743 8.98857 15.6143 8.72857C15.3543 8.46857 15.0381 8.33857 14.6657 8.33857C14.2933 8.33857 13.9733 8.47238 13.7057 8.74C12.7381 8.07048 11.581 7.71333 10.2343 7.66857L10.9371 4.51L13.17 5.01286C13.17 5.2881 13.2667 5.52238 13.46 5.71571C13.6533 5.90905 13.8876 6.00571 14.1629 6.00571C14.4381 6.00571 14.6743 5.90714 14.8714 5.71C15.0686 5.51286 15.1671 5.27667 15.1671 5.00143C15.1671 4.72619 15.0686 4.49 14.8714 4.29286C14.6743 4.09571 14.4381 3.99714 14.1629 3.99714C13.761 3.99714 13.4633 4.18333 13.27 4.55571L10.8029 4.00857C10.6619 3.97143 10.569 4.03095 10.5243 4.18714L9.75429 7.67C8.41524 7.72238 7.26571 8.08333 6.30571 8.75286C6.04571 8.47762 5.7219 8.34 5.33429 8.34C4.9619 8.34 4.64571 8.47 4.38571 8.73C4.12571 8.99 3.99571 9.30238 3.99571 9.66714C3.99571 9.92714 4.06476 10.1652 4.20286 10.3814C4.34095 10.5976 4.52524 10.7614 4.75571 10.8729C4.71095 11.0738 4.68857 11.2824 4.68857 11.4986C4.68857 12.5548 5.20952 13.4586 6.25143 14.21C7.29333 14.9614 8.54714 15.3371 10.0129 15.3371C11.4862 15.3371 12.7438 14.9614 13.7857 14.21C14.8276 13.4586 15.3486 12.5548 15.3486 11.4986C15.3486 11.2605 15.3224 11.0486 15.27 10.8629C15.4929 10.7514 15.6714 10.5895 15.8057 10.3771C15.94 10.1648 16.0071 9.92857 16.0071 9.66857L16.0043 9.66571ZM20 10C20 11.3543 19.7357 12.649 19.2071 13.8843C18.6786 15.1195 17.9681 16.1833 17.0757 17.0757C16.1833 17.9681 15.1195 18.6786 13.8843 19.2071C12.649 19.7357 11.3543 20 10 20C8.64571 20 7.35095 19.7357 6.11571 19.2071C4.88048 18.6786 3.81667 17.9681 2.92429 17.0757C2.0319 16.1833 1.32143 15.1195 0.792857 13.8843C0.264286 12.649 0 11.3543 0 10C0 8.64571 0.264286 7.35095 0.792857 6.11571C1.32143 4.88048 2.0319 3.81667 2.92429 2.92429C3.81667 2.0319 4.88048 1.32143 6.11571 0.792857C7.35095 0.264286 8.64571 0 10 0C11.3543 0 12.649 0.264286 13.8843 0.792857C15.1195 1.32143 16.1833 2.0319 17.0757 2.92429C17.9681 3.81667 18.6786 4.88048 19.2071 6.11571C19.7357 7.35095 20 8.64571 20 10Z" fill="#12DCF6"/>
</svg>
