<svg width="50" height="50" viewBox="0 0 50 50" fill="none" xmlns="http://www.w3.org/2000/svg">
  <path d="M25 0C11.1928 0 0 11.1928 0 25C0 38.8072 11.1928 50 25 50C38.8072 50 50 38.8072 50 25C50 11.1928 38.8072 0 25 0ZM25 4.83871C36.1423 4.83871 45.1613 13.8559 45.1613 25C45.1613 36.1423 36.1441 45.1613 25 45.1613C13.8577 45.1613 4.83871 36.1441 4.83871 25C4.83871 13.8577 13.8559 4.83871 25 4.83871ZM39.1335 17.9705L36.8617 15.6803C36.3912 15.206 35.6253 15.2029 35.151 15.6735L20.9018 29.8082L14.8744 23.7319C14.4039 23.2576 13.638 23.2544 13.1637 23.7249L10.8735 25.9967C10.3992 26.4671 10.3961 27.2331 10.8666 27.7075L20.0179 36.9329C20.4884 37.4072 21.2543 37.4103 21.7286 36.9397L39.1267 19.6813C39.6009 19.2107 39.6039 18.4448 39.1335 17.9705Z" fill="#32CB9D"/>
</svg>
