<svg viewBox="0 0 20 21" xmlns="http://www.w3.org/2000/svg">
<path d="M9.6875 0.8125C4.33594 0.8125 0 5.14844 0 10.5C0 15.8516 4.33594 20.1875 9.6875 20.1875C15.0391 20.1875 19.375 15.8516 19.375 10.5C19.375 5.14844 15.0391 0.8125 9.6875 0.8125ZM14.4141 7.45312L12.8516 14.9531C12.7344 15.5 12.4219 15.6172 11.9531 15.3828L9.53125 13.5859L8.35938 14.7188C8.24219 14.8359 8.125 14.9531 7.89062 14.9531L8.04688 12.4922L12.5391 8.42969C12.7344 8.27344 12.5 8.15625 12.2266 8.3125L6.67969 11.8281L4.29688 11.0859C3.78906 10.9297 3.78906 10.5391 4.41406 10.3047L13.75 6.71094C14.1797 6.55469 14.5703 6.82812 14.4141 7.45312Z" />
</svg>
