<svg viewBox="0 0 14 14" fill="none" xmlns="http://www.w3.org/2000/svg">
  <path d="M7 14C10.866 14 14 10.866 14 7C14 3.13401 10.866 0 7 0C3.13401 0 0 3.13401 0 7C0 10.866 3.13401 14 7 14Z" fill="#627EEA"/>
  <path d="M7.21777 1.75V5.63063L10.4977 7.09625L7.21777 1.75Z" fill="white" fill-opacity="0.602"/>
  <path d="M7.21787 1.75L3.9375 7.09625L7.21787 5.63063V1.75Z" fill="white"/>
  <path d="M7.21777 9.61103V12.2478L10.4999 7.70703L7.21777 9.61103Z" fill="white" fill-opacity="0.602"/>
  <path d="M7.21787 12.2478V9.61059L3.9375 7.70703L7.21787 12.2478Z" fill="white"/>
  <path d="M7.21777 9.00072L10.4977 7.09628L7.21777 5.63153V9.00072Z" fill="white" fill-opacity="0.2"/>
  <path d="M3.9375 7.09628L7.21787 9.00072V5.63153L3.9375 7.09628Z" fill="white" fill-opacity="0.602"/>
</svg>
