<svg viewBox="0 0 14 14" fill="none" xmlns="http://www.w3.org/2000/svg">
  <path d="M7 14C10.866 14 14 10.866 14 7C14 3.13401 10.866 0 7 0C3.13401 0 0 3.13401 0 7C0 10.866 3.13401 14 7 14Z" fill="#1F4C9F"/>
  <path fill-rule="evenodd" clip-rule="evenodd" d="M2.625 8.42188L7 2.84375L11.375 8.42188V10.2812L7 4.70312L2.625 10.2812V8.42188ZM7.21875 8.96875C6.92867 8.96875 6.65047 8.85352 6.44535 8.6484C6.24023 8.44328 6.125 8.16508 6.125 7.875C6.125 7.58492 6.24023 7.30672 6.44535 7.1016C6.65047 6.89648 6.92867 6.78125 7.21875 6.78125C7.50883 6.78125 7.78703 6.89648 7.99215 7.1016C8.19727 7.30672 8.3125 7.58492 8.3125 7.875C8.3125 8.16508 8.19727 8.44328 7.99215 8.6484C7.78703 8.85352 7.50883 8.96875 7.21875 8.96875Z" fill="white"/>
</svg>
