<svg viewBox="0 0 24 24" fill="none" xmlns="http://www.w3.org/2000/svg">
<path d="M0 12C0 15.1826 1.26428 18.2348 3.51472 20.4853C5.76516 22.7357 8.8174 24 12 24C15.1826 24 18.2348 22.7357 20.4853 20.4853C22.7357 18.2348 24 15.1826 24 12C24 8.8174 22.7357 5.76516 20.4853 3.51472C18.2348 1.26428 15.1826 0 12 0C8.8174 0 5.76516 1.26428 3.51472 3.51472C1.26428 5.76516 0 8.8174 0 12H0Z" fill="#2775C9"/>
<path d="M11.28 7.54506V6.79506C11.28 6.60411 11.3559 6.42097 11.4909 6.28595C11.6259 6.15092 11.809 6.07506 12 6.07506C12.191 6.07506 12.3741 6.15092 12.5091 6.28595C12.6441 6.42097 12.72 6.60411 12.72 6.79506V7.54206C14.0227 7.73781 14.916 8.47881 15.1545 9.53406C15.1686 9.5963 15.1684 9.6609 15.1542 9.72309C15.1399 9.78527 15.1118 9.84344 15.0719 9.89329C15.0321 9.94313 14.9815 9.98338 14.924 10.011C14.8665 10.0387 14.8036 10.0531 14.7397 10.0531H14.3505C14.0355 10.0531 13.7483 9.87081 13.6147 9.58581C13.3658 9.05781 12.777 8.75331 11.9932 8.75331C11.0122 8.75331 10.3507 9.23481 10.3507 9.95631C10.3507 10.5338 10.7902 10.8713 11.8545 11.1233L12.8535 11.3521C14.616 11.7556 15.3615 12.4831 15.3615 13.7768C15.3615 15.2093 14.361 16.1791 12.72 16.4078V17.2748C12.72 17.3694 12.7014 17.463 12.6652 17.5503C12.629 17.6377 12.576 17.7171 12.5091 17.7839C12.4423 17.8508 12.3629 17.9038 12.2755 17.94C12.1882 17.9762 12.0946 17.9948 12 17.9948C11.9054 17.9948 11.8118 17.9762 11.7245 17.94C11.6371 17.9038 11.5577 17.8508 11.4909 17.7839C11.424 17.7171 11.371 17.6377 11.3348 17.5503C11.2986 17.463 11.28 17.3694 11.28 17.2748V16.4213C9.8265 16.2458 8.844 15.4763 8.61375 14.2988C8.60369 14.247 8.6052 14.1937 8.61818 14.1425C8.63116 14.0914 8.65528 14.0438 8.68883 14.0031C8.72237 13.9624 8.7645 13.9296 8.81221 13.9071C8.85991 13.8845 8.912 13.8728 8.96475 13.8728H9.55575C9.8235 13.8728 10.0673 14.0266 10.182 14.2688C10.4543 14.8411 11.151 15.1958 12.0233 15.1958C13.0703 15.1958 13.7977 14.6783 13.7977 13.9568C13.7977 13.3313 13.3523 12.9706 12.258 12.7118L11.133 12.4471C9.5325 12.0796 8.775 11.3101 8.775 10.0711C8.775 8.73606 9.78225 7.77681 11.28 7.54431V7.54506ZM3 12.0001C3 8.02881 5.592 4.66056 9.183 3.48306C9.24782 3.46174 9.31676 3.45607 9.38419 3.46653C9.45162 3.47698 9.51562 3.50326 9.57093 3.54321C9.62625 3.58316 9.67132 3.63565 9.70244 3.69637C9.73357 3.75709 9.74986 3.82433 9.75 3.89256V4.14681C9.75 4.53306 9.51525 4.88181 9.1575 5.02656C6.39375 6.14556 4.446 8.84631 4.446 12.0001C4.446 15.1523 6.3915 17.8523 9.15225 18.9721C9.513 19.1183 9.74925 19.4686 9.74925 19.8578V20.0693C9.74928 20.142 9.73203 20.2137 9.69893 20.2784C9.66583 20.3432 9.61783 20.3991 9.55887 20.4417C9.49992 20.4842 9.43169 20.5122 9.35983 20.5232C9.28796 20.5342 9.2145 20.528 9.1455 20.5051C5.574 19.3163 3 15.9578 3 12.0001ZM21 12.0001C21 15.9488 18.438 19.3006 14.88 20.4968C14.8082 20.5211 14.7316 20.528 14.6566 20.5168C14.5817 20.5056 14.5104 20.4767 14.4488 20.4325C14.3872 20.3883 14.3371 20.3301 14.3025 20.2626C14.2679 20.1951 14.2499 20.1204 14.25 20.0446V19.8751C14.25 19.4761 14.4915 19.1176 14.8605 18.9661C17.6137 17.8433 19.5532 15.1471 19.5532 12.0001C19.5532 8.85606 17.6183 6.16206 14.8688 5.03706C14.6858 4.96231 14.5293 4.83481 14.4191 4.67079C14.3089 4.50677 14.2501 4.31366 14.25 4.11606V3.96156C14.25 3.88516 14.2683 3.80987 14.3032 3.7419C14.3381 3.67394 14.3886 3.61525 14.4507 3.5707C14.5128 3.52614 14.5846 3.497 14.6601 3.48567C14.7357 3.47435 14.8128 3.48117 14.8853 3.50556C18.4403 4.70331 21 8.05431 21 12.0001Z" fill="white"/>
</svg>
