<svg width="14" height="14" viewBox="0 0 14 14" fill="none" xmlns="http://www.w3.org/2000/svg">
  <path d="M7 14C10.866 14 14 10.866 14 7C14 3.13401 10.866 0 7 0C3.13401 0 0 3.13401 0 7C0 10.866 3.13401 14 7 14Z" fill="#F4B731"/>
  <path fill-rule="evenodd" clip-rule="evenodd" d="M4.05869 3.5H6.92519C8.66863 3.5 9.99031 4.42575 10.4821 5.77238H11.375V6.58656H10.6702C10.6838 6.71519 10.6908 6.84644 10.6908 6.97944V6.99956C10.6908 7.14919 10.682 7.29706 10.6645 7.44144H11.375V8.25519H10.465C9.96056 9.58344 8.64937 10.5 6.92562 10.5H4.05869V8.25519H3.0625V7.44144H4.05869V6.58656H3.0625V5.77281H4.05869V3.5ZM4.85975 8.25519V9.76981H6.92475C8.19963 9.76981 9.14638 9.163 9.58694 8.25519H4.85975ZM9.83238 7.44144H4.85975V6.58656H9.83413C9.85206 6.72088 9.86169 6.85869 9.86169 6.99956V7.01925C9.86169 7.16319 9.85163 7.30362 9.83238 7.441V7.44144ZM6.92562 4.22844C8.20575 4.22844 9.15556 4.85144 9.5935 5.77194H4.85975V4.22888H6.92475L6.92562 4.22844Z" fill="white"/>
</svg>
