<svg viewBox="0 0 14 14" fill="none" xmlns="http://www.w3.org/2000/svg">
  <path d="M7 14C10.866 14 14 10.866 14 7C14 3.13401 10.866 0 7 0C3.13401 0 0 3.13401 0 7C0 10.866 3.13401 14 7 14Z" fill="#201A2D"/>
  <path d="M9.98317 4.19387L9.72067 4.45636C10.347 5.14134 10.6944 6.03593 10.6944 6.96412C10.6944 7.8923 10.347 8.78689 9.72067 9.47186L9.98317 9.73436C10.6798 8.97879 11.0665 7.98874 11.0665 6.96105C11.0665 5.93337 10.6798 4.94332 9.98317 4.18774V4.19387ZM4.46279 4.21661C5.14777 3.59025 6.04236 3.24289 6.97054 3.24289C7.89873 3.24289 8.79332 3.59025 9.47829 4.21661L9.7408 3.95411C8.98522 3.25753 7.99517 2.87079 6.96748 2.87079C5.9398 2.87079 4.94975 3.25753 4.19417 3.95411L4.46279 4.21661ZM4.21692 9.47449C3.59129 8.78967 3.2444 7.89563 3.2444 6.96805C3.2444 6.04048 3.59129 5.14644 4.21692 4.46161L3.95442 4.19911C3.25783 4.95469 2.87109 5.94474 2.87109 6.97243C2.87109 8.00011 3.25783 8.99016 3.95442 9.74574L4.21692 9.47449ZM9.47479 9.71686C8.78982 10.3432 7.89523 10.6906 6.96704 10.6906C6.03886 10.6906 5.14427 10.3432 4.4593 9.71686L4.19679 9.97936C4.95237 10.676 5.94242 11.0627 6.97011 11.0627C7.99779 11.0627 8.98784 10.676 9.74342 9.97936L9.47479 9.71686ZM8.62517 6.09174C8.57267 5.54399 8.10017 5.36024 7.50255 5.30424V4.54999H7.04054V5.29024H6.6713V4.54999H6.21279V5.30949H5.27567V5.80386C5.27567 5.80386 5.61692 5.79774 5.61167 5.80386C5.6732 5.7971 5.73496 5.81448 5.78392 5.85234C5.83289 5.89021 5.86524 5.94561 5.87417 6.00686V8.08587C5.87286 8.10747 5.86722 8.12859 5.8576 8.14797C5.84799 8.16736 5.83458 8.18462 5.81817 8.19874C5.80207 8.21312 5.78323 8.2241 5.76278 8.23102C5.74233 8.23794 5.72069 8.24065 5.69917 8.23899C5.7053 8.24424 5.36317 8.23899 5.36317 8.23899L5.27567 8.79111H6.20405V9.56286H6.66604V8.80249H7.0353V9.55936H7.49817V8.79637C8.27867 8.74911 8.82292 8.55661 8.89117 7.82599C8.9463 7.23799 8.6698 6.97549 8.22792 6.86961C8.49654 6.73749 8.6628 6.49249 8.62517 6.09174ZM7.97767 7.73499C7.97767 8.30899 6.99417 8.24336 6.68092 8.24336V7.22486C6.99417 7.22574 7.97767 7.13561 7.97767 7.73499ZM7.76329 6.29999C7.76329 6.82499 6.94254 6.76112 6.6818 6.76112V5.83536C6.94254 5.83536 7.76329 5.75311 7.76329 6.29999Z" fill="white"/>
  <path d="M6.96675 11.7477C4.32687 11.7473 2.1875 9.60706 2.1875 6.96719C2.1875 4.32775 4.32775 2.1875 6.96719 2.1875C9.60706 2.1875 11.7473 4.32687 11.7477 6.96675C11.7479 7.59463 11.6243 8.21639 11.3841 8.79649C11.1438 9.3766 10.7917 9.9037 10.3477 10.3477C9.9037 10.7917 9.3766 11.1438 8.79649 11.3841C8.21639 11.6243 7.59463 11.7479 6.96675 11.7477ZM6.96675 2.56025C4.53469 2.562 2.56462 4.53469 2.5655 6.96675C2.56637 9.39881 4.53862 11.3698 6.97025 11.3698C9.40231 11.3698 11.3741 9.39881 11.375 6.96675C11.3752 6.38787 11.2614 5.81462 11.0399 5.27978C10.8184 4.74494 10.4937 4.259 10.0843 3.84975C9.67485 3.4405 9.18878 3.11597 8.65385 2.8947C8.11893 2.67344 7.54563 2.55979 6.96675 2.56025Z" fill="white"/>
</svg>
