<svg viewBox="0 0 14 14" fill="none" xmlns="http://www.w3.org/2000/svg">
  <path d="M7 14C10.866 14 14 10.866 14 7C14 3.13401 10.866 0 7 0C3.13401 0 0 3.13401 0 7C0 10.866 3.13401 14 7 14Z" fill="#FF2D55"/>
  <path d="M5.59694 5.04613L2.51476 8.74475C2.29755 8.18874 2.18655 7.59693 2.18751 7C2.18751 4.34131 4.34132 2.1875 7.00001 2.1875C9.65913 2.1875 11.8125 4.34131 11.8125 7C11.8125 8.47 11.1532 9.78644 10.1137 10.6693H3.88632C3.61372 10.4357 3.36688 10.1736 3.15001 9.8875H8.64588V7.80369L10.3806 9.8875H10.85L8.64369 7.24062L8.03469 7.97213L5.59738 5.04613H5.59694ZM8.64413 4.1125C8.33066 4.12095 8.03287 4.25142 7.81414 4.47613C7.59541 4.70084 7.47302 5.00204 7.47302 5.31562C7.47302 5.62921 7.59541 5.93041 7.81414 6.15512C8.03287 6.37983 8.33066 6.5103 8.64413 6.51875C8.9576 6.5103 9.2554 6.37983 9.47413 6.15512C9.69285 5.93041 9.81524 5.62921 9.81524 5.31562C9.81524 5.00204 9.69285 4.70084 9.47413 4.47613C9.2554 4.25142 8.9576 4.12095 8.64413 4.1125ZM5.59782 3.24144C5.51743 3.23927 5.43741 3.25323 5.36251 3.2825C5.2876 3.31177 5.21932 3.35575 5.16169 3.41184C5.10406 3.46794 5.05826 3.53501 5.02698 3.6091C4.99571 3.68319 4.97959 3.7628 4.97959 3.84322C4.97959 3.92364 4.99571 4.00325 5.02698 4.07734C5.05826 4.15143 5.10406 4.2185 5.16169 4.2746C5.21932 4.33069 5.2876 4.37467 5.36251 4.40394C5.43741 4.43321 5.51743 4.44717 5.59782 4.445C5.75461 4.44077 5.90356 4.37552 6.01297 4.26312C6.12237 4.15073 6.18359 4.00007 6.18359 3.84322C6.18359 3.68637 6.12237 3.53571 6.01297 3.42332C5.90356 3.31092 5.75461 3.24567 5.59782 3.24144ZM4.37019 11.0302H9.63026C8.84832 11.5414 7.9342 11.8133 7.00001 11.8125C6.06596 11.8132 5.152 11.5414 4.37019 11.0302ZM7.80151 8.25387L6.74013 9.52656H2.90457C2.75132 9.27825 2.62085 9.01658 2.51476 8.74475H5.59738V5.60875L7.80151 8.25344V8.25387Z" fill="white"/>
</svg>
