<svg width="21" height="33" viewBox="0 0 21 33" fill="none" xmlns="http://www.w3.org/2000/svg">
    <g filter="url(#filter0_d_1526_391)">
        <path d="M10.6225 23.21L20 17.77L10.6225 30.7438L1.25 17.7687L10.6225 23.2075V23.21ZM10.6225 0.75L19.9938 16.025L10.6225 21.4662L1.25 16.025L10.6225 0.75Z" fill="black"/>
    </g>
    <path fill-rule="evenodd" clip-rule="evenodd" d="M10.6226 0.75V11.8375L19.9938 16.025L10.6226 0.75Z" fill="#343434"/>
    <path fill-rule="evenodd" clip-rule="evenodd" d="M10.6225 0.75L1.25 16.025L10.6225 11.8375V0.75Z" fill="#8C8C8C"/>
    <path fill-rule="evenodd" clip-rule="evenodd" d="M10.6226 23.21V30.7438L20.0001 17.77L10.6226 23.21Z" fill="#3C3C3B"/>
    <path fill-rule="evenodd" clip-rule="evenodd" d="M10.6225 30.7438V23.2088L1.25 17.77L10.6225 30.7438Z" fill="#8C8C8C"/>
    <path fill-rule="evenodd" clip-rule="evenodd" d="M10.6226 21.4663L19.9938 16.025L10.6226 11.84V21.4663Z" fill="#141414"/>
    <path fill-rule="evenodd" clip-rule="evenodd" d="M1.25 16.025L10.6225 21.4663V11.84L1.25 16.025Z" fill="#393939"/>
    <defs>
        <filter id="filter0_d_1526_391" x="0.25" y="0.25" width="20.75" height="31.9938" filterUnits="userSpaceOnUse" color-interpolation-filters="sRGB">
            <feFlood flood-opacity="0" result="BackgroundImageFix"/>
            <feColorMatrix in="SourceAlpha" type="matrix" values="0 0 0 0 0 0 0 0 0 0 0 0 0 0 0 0 0 0 127 0" result="hardAlpha"/>
            <feOffset dy="0.5"/>
            <feGaussianBlur stdDeviation="0.5"/>
            <feColorMatrix type="matrix" values="0 0 0 0 0 0 0 0 0 0 0 0 0 0 0 0 0 0 0.204257 0"/>
            <feBlend mode="normal" in2="BackgroundImageFix" result="effect1_dropShadow_1526_391"/>
            <feBlend mode="normal" in="SourceGraphic" in2="effect1_dropShadow_1526_391" result="shape"/>
        </filter>
    </defs>
</svg>
