<svg width="20" height="20" viewBox="0 0 20 20" fill="none" xmlns="http://www.w3.org/2000/svg">
    <path d="M19.1667 3.54141C18.451 3.86427 17.6896 4.07627 16.909 4.17C17.7356 3.66427 18.3497 2.87918 18.638 1.95966C17.8682 2.42405 17.0225 2.7517 16.1391 2.92787C15.7759 2.53104 15.333 2.21385 14.8389 1.99667C14.3448 1.77949 13.8102 1.66712 13.2697 1.66675C11.0991 1.66675 9.33896 3.45591 9.33896 5.66387C9.33896 5.97737 9.3725 6.28137 9.43958 6.57429C6.17167 6.40725 3.27431 4.81679 1.33368 2.39666C0.983754 3.00999 0.800478 3.70287 0.801806 4.4075C0.801806 5.79371 1.4966 7.01762 2.55076 7.73487C1.92512 7.71424 1.31392 7.54304 0.769861 7.23612V7.28521C0.769861 9.22241 2.1251 10.8382 3.92437 11.204C3.5877 11.2986 3.23932 11.346 2.88937 11.3449C2.63622 11.3449 2.38865 11.3211 2.14906 11.2736C2.64899 12.8617 4.10087 14.0175 5.82187 14.0484C5.01298 14.6972 4.08078 15.1783 3.08066 15.4629C2.08054 15.7475 1.0329 15.83 0 15.7054C1.78881 16.8756 3.88472 17.4996 6.02792 17.5001C13.2617 17.5001 17.2165 11.4106 17.2165 6.12779C17.2165 5.95362 17.2125 5.78025 17.2061 5.61004C17.9743 5.04637 18.6412 4.34337 19.1667 3.54141Z" fill="#12DCF6"/>
</svg>
