<svg viewBox="0 0 20 20" xmlns="http://www.w3.org/2000/svg">
<path d="M19.1667 3.54132C18.451 3.86418 17.6896 4.07618 16.909 4.16991C17.7356 3.66418 18.3497 2.87909 18.638 1.95957C17.8682 2.42396 17.0225 2.75161 16.1391 2.92778C15.7759 2.53094 15.333 2.21376 14.8389 1.99658C14.3448 1.7794 13.8102 1.66702 13.2697 1.66666C11.0991 1.66666 9.33896 3.45582 9.33896 5.66378C9.33896 5.97728 9.3725 6.28128 9.43958 6.5742C6.17167 6.40716 3.27431 4.8167 1.33368 2.39657C0.983754 3.0099 0.800478 3.70278 0.801805 4.40741C0.801805 5.79361 1.4966 7.01753 2.55076 7.73478C1.92512 7.71415 1.31392 7.54295 0.769861 7.23603V7.28511C0.769861 9.22232 2.1251 10.8381 3.92437 11.2039C3.5877 11.2985 3.23932 11.3459 2.88937 11.3448C2.63621 11.3448 2.38865 11.321 2.14906 11.2735C2.64899 12.8616 4.10087 14.0174 5.82187 14.0483C5.01298 14.6971 4.08078 15.1782 3.08066 15.4628C2.08054 15.7474 1.0329 15.8299 0 15.7053C1.78881 16.8755 3.88472 17.4995 6.02792 17.5C13.2617 17.5 17.2165 11.4105 17.2165 6.1277C17.2165 5.95353 17.2125 5.78016 17.2061 5.60995C17.9743 5.04628 18.6412 4.34328 19.1667 3.54132Z" />
</svg>
