<svg viewBox="0 0 24 24" fill="none" xmlns="http://www.w3.org/2000/svg">
<path d="M23.8806 11.9403C23.8806 18.5349 18.5349 23.8806 11.9403 23.8806C5.34591 23.8806 2.34375e-08 18.5349 0 11.9403C0 5.34579 5.34591 2.34375e-08 11.9403 0C18.5349 0 23.8806 5.34579 23.8806 11.9403Z" fill="#1BA27A"/>
<path d="M17.5445 6.021H6.23828V8.75055H10.5266V12.7625H13.2562V8.75055H17.5445V6.021Z" fill="white"/>
<path d="M11.9177 13.1899C8.37027 13.1899 5.49421 12.6285 5.49421 11.9358C5.49421 11.2433 8.37015 10.6817 11.9177 10.6817C15.4652 10.6817 18.3411 11.2433 18.3411 11.9358C18.3411 12.6285 15.4652 13.1899 11.9177 13.1899ZM19.1303 12.1449C19.1303 11.2518 15.9011 10.5278 11.9177 10.5278C7.93445 10.5278 4.70508 11.2518 4.70508 12.1449C4.70508 12.9314 7.20908 13.5867 10.5272 13.7319V19.4912H13.2565V13.7342C16.6001 13.5935 19.1303 12.9355 19.1303 12.1449Z" fill="white"/>
</svg>
