<svg width="56" height="56" viewBox="0 0 56 56" fill="none" xmlns="http://www.w3.org/2000/svg">
  <path d="M55.4805 27.9805C55.4805 26.1445 55.3047 24.3477 54.9531 22.5898C54.6016 20.793 54.0938 19.0938 53.4297 17.4922C52.7266 15.8125 51.8672 14.2305 50.8516 12.7461C49.8359 11.2227 48.7031 9.81641 47.4531 8.52734C46.1641 7.27734 44.7773 6.14453 43.293 5.12891C41.8086 4.11328 40.2266 3.27344 38.5469 2.60938C36.9062 1.90625 35.207 1.37891 33.4492 1.02734C31.6914 0.675781 29.875 0.5 28 0.5C26.125 0.5 24.3086 0.675781 22.5508 1.02734C20.793 1.37891 19.0938 1.90625 17.4531 2.60938C15.7734 3.27344 14.1914 4.11328 12.707 5.12891C11.2227 6.14453 9.83594 7.27734 8.54688 8.52734C7.29688 9.81641 6.16406 11.2227 5.14844 12.7461C4.13281 14.2305 3.27344 15.8125 2.57031 17.4922C1.90625 19.0938 1.39844 20.793 1.04688 22.5898C0.695312 24.3477 0.519531 26.1445 0.519531 27.9805C0.519531 29.8555 0.695312 31.6719 1.04688 33.4297C1.39844 35.1875 1.90625 36.8867 2.57031 38.5273C3.27344 40.207 4.13281 41.8086 5.14844 43.332C6.16406 44.8164 7.29688 46.1836 8.54688 47.4336C9.83594 48.7227 11.2227 49.875 12.707 50.8906C14.1914 51.8672 15.7734 52.707 17.4531 53.4102C19.0938 54.0742 20.793 54.582 22.5508 54.9336C24.3086 55.3242 26.125 55.5195 28 55.5195C29.875 55.5195 31.6914 55.3242 33.4492 54.9336C35.207 54.582 36.8867 54.0742 38.4883 53.4102C40.207 52.707 41.8086 51.8672 43.293 50.8906C44.7773 49.875 46.1641 48.7227 47.4531 47.4336C48.7031 46.1836 49.8359 44.8164 50.8516 43.332C51.8672 41.8086 52.7266 40.207 53.4297 38.5273C54.0938 36.8867 54.6016 35.1875 54.9531 33.4297C55.3047 31.6719 55.4805 29.8555 55.4805 27.9805ZM50.5 27.9805C50.5 29.5039 50.3438 30.9883 50.0312 32.4336C49.7578 33.8789 49.3477 35.2656 48.8008 36.5938C48.2148 37.9609 47.5117 39.2695 46.6914 40.5195C45.8711 41.7305 44.9531 42.8633 43.9375 43.918C42.8828 44.9336 41.7305 45.8711 40.4805 46.7305C39.2695 47.5508 37.9805 48.2344 36.6133 48.7812C35.2852 49.3281 33.8984 49.7578 32.4531 50.0703C31.0078 50.3438 29.5234 50.4805 28 50.4805C26.4766 50.4805 24.9922 50.3438 23.5469 50.0703C22.1016 49.7578 20.7148 49.3281 19.3867 48.7812C18.0195 48.2344 16.7109 47.5508 15.4609 46.7305C14.25 45.8711 13.1172 44.9336 12.0625 43.918C11.0469 42.8633 10.1289 41.7305 9.30859 40.5195C8.48828 39.2695 7.78516 37.9609 7.19922 36.5938C6.65234 35.2656 6.22266 33.8789 5.91016 32.4336C5.63672 30.9883 5.5 29.5039 5.5 27.9805C5.5 26.457 5.63672 24.9727 5.91016 23.5273C6.22266 22.082 6.65234 20.6953 7.19922 19.3672C7.78516 18 8.48828 16.7109 9.30859 15.5C10.1289 14.25 11.0469 13.1172 12.0625 12.1016C13.1172 11.0469 14.25 10.1094 15.4609 9.28906C16.7109 8.46875 18.0195 7.76562 19.3867 7.17969C20.7148 6.63281 22.1016 6.22266 23.5469 5.94922C24.9922 5.63672 26.4766 5.48047 28 5.48047C29.5234 5.48047 31.0078 5.63672 32.4531 5.94922C33.8984 6.22266 35.2852 6.63281 36.6133 7.17969C37.9805 7.76562 39.2695 8.46875 40.4805 9.28906C41.7305 10.1094 42.8828 11.0469 43.9375 12.1016C44.9531 13.1172 45.8711 14.25 46.6914 15.5C47.5117 16.7109 48.2148 18 48.8008 19.3672C49.3477 20.6953 49.7578 22.082 50.0312 23.5273C50.3438 24.9727 50.5 26.457 50.5 27.9805ZM25.4805 18.0195V27.9805C25.4805 28.6836 25.7148 29.2891 26.1836 29.7969C26.6914 30.2656 27.2969 30.5 28 30.5C28.7031 30.5 29.2891 30.2656 29.7578 29.7969C30.2656 29.2891 30.5195 28.6836 30.5195 27.9805V18.0195C30.5195 17.3164 30.2656 16.7305 29.7578 16.2617C29.2891 15.7539 28.7031 15.5 28 15.5C27.2969 15.5 26.6914 15.7539 26.1836 16.2617C25.7148 16.7305 25.4805 17.3164 25.4805 18.0195ZM30.5195 38C30.5195 37.2969 30.2656 36.7109 29.7578 36.2422C29.2891 35.7344 28.7031 35.4805 28 35.4805C27.2969 35.4805 26.6914 35.7344 26.1836 36.2422C25.7148 36.7109 25.4805 37.2969 25.4805 38C25.4805 38.7031 25.7148 39.3086 26.1836 39.8164C26.6914 40.2852 27.2969 40.5195 28 40.5195C28.7031 40.5195 29.2891 40.2852 29.7578 39.8164C30.2656 39.3086 30.5195 38.7031 30.5195 38Z" fill="white"/>
</svg>
