<svg viewBox="0 0 20 21" xmlns="http://www.w3.org/2000/svg">
  <path opacity="1" d="M13.457 6.75C12.8906 3.26172 11.5547 0.8125 10 0.8125C8.44531 0.8125 7.10938 3.26172 6.54297 6.75H13.457ZM6.25 10.5C6.25 11.3672 6.29688 12.1992 6.37891 13H13.6172C13.6992 12.1992 13.7461 11.3672 13.7461 10.5C13.7461 9.63281 13.6992 8.80078 13.6172 8H6.37891C6.29688 8.80078 6.25 9.63281 6.25 10.5ZM18.9336 6.75C17.8164 4.09766 15.5547 2.04688 12.7617 1.21875C13.7148 2.53906 14.3711 4.52734 14.7148 6.75H18.9336ZM7.23438 1.21875C4.44531 2.04688 2.17969 4.09766 1.06641 6.75H5.28516C5.625 4.52734 6.28125 2.53906 7.23438 1.21875ZM19.3516 8H14.8711C14.9531 8.82031 15 9.66016 15 10.5C15 11.3398 14.9531 12.1797 14.8711 13H19.3477C19.5625 12.1992 19.6836 11.3672 19.6836 10.5C19.6836 9.63281 19.5625 8.80078 19.3516 8ZM5 10.5C5 9.66016 5.04688 8.82031 5.12891 8H0.648438C0.4375 8.80078 0.3125 9.63281 0.3125 10.5C0.3125 11.3672 0.4375 12.1992 0.648438 13H5.125C5.04688 12.1797 5 11.3398 5 10.5ZM6.54297 14.25C7.10938 17.7383 8.44531 20.1875 10 20.1875C11.5547 20.1875 12.8906 17.7383 13.457 14.25H6.54297ZM12.7656 19.7812C15.5547 18.9531 17.8203 16.9023 18.9375 14.25H14.7188C14.375 16.4727 13.7187 18.4609 12.7656 19.7812ZM1.06641 14.25C2.18359 16.9023 4.44531 18.9531 7.23828 19.7812C6.28516 18.4609 5.62891 16.4727 5.28516 14.25H1.06641Z"/>
</svg>
