<svg width="20" height="20" viewBox="0 0 20 20" fill="#7E96B8" xmlns="http://www.w3.org/2000/svg">
  <path fill-rule="evenodd" clip-rule="evenodd" d="M20 9.99943C20 15.5221 15.5226 19.9994 9.9997 19.9994C4.4768 19.9994 0 15.5221 0 9.99943C0 4.47712 4.4768 0 9.9997 0C15.5226 0 20 4.47712 20 9.99943ZM8.66734 11.9275L11.9413 10.0046L8.66734 8.08144V11.9275ZM14.9998 8.21206V11.7874C14.9998 13.5105 13.2762 13.5105 13.2762 13.5105H6.72265C5.00014 13.5105 5.00014 11.7874 5.00014 11.7874V8.21206C5.00014 6.48866 6.72265 6.48866 6.72265 6.48866H13.2762C14.9998 6.48866 14.9998 8.21206 14.9998 8.21206Z" />
</svg>
