<svg width="44" height="46" viewBox="0 0 44 46" fill="none" xmlns="http://www.w3.org/2000/svg">
<path d="M42.63 22.7089C42.63 34.006 33.3972 43.1709 21.9996 43.1709C10.6019 43.1709 1.36914 34.006 1.36914 22.7089C1.36914 11.4118 10.6019 2.24683 21.9996 2.24683C33.3972 2.24683 42.63 11.4118 42.63 22.7089Z" stroke="#7E96B8"/>
<path d="M22.0007 22.2311C24.086 22.2311 25.7777 20.6433 25.7777 18.6846C25.7777 16.727 24.086 15.1392 22.0007 15.1392C19.9143 15.1392 18.2236 16.727 18.2236 18.6846C18.2236 20.6444 19.9143 22.2311 22.0007 22.2311ZM25.3679 23.6499H18.6324C16.2767 23.6499 14.3811 25.4289 14.3691 27.6406V30.8607H29.63V27.6406C29.6169 25.4289 27.7224 23.6499 25.3668 23.6499H25.3679ZM27.0705 28.4578H16.9308V27.6395C16.9439 26.7627 17.6993 26.0538 18.6335 26.0538H25.3679C26.302 26.0538 27.0575 26.7627 27.0705 27.6406V28.4578Z" fill="#7E96B8"/>
</svg>
