<svg width="20" height="20" viewBox="0 0 20 20" fill="none" xmlns="http://www.w3.org/2000/svg">
<g opacity="0.4">
<path d="M9.99995 5.05447C7.26316 5.05447 5.05444 7.26319 5.05444 9.99998C5.05444 12.7368 7.26316 14.9455 9.99995 14.9455C12.7367 14.9455 14.9455 12.7368 14.9455 9.99998C14.9455 7.26319 12.7367 5.05447 9.99995 5.05447ZM9.99995 13.2142C8.23008 13.2142 6.78573 11.7698 6.78573 9.99998C6.78573 8.23011 8.23008 6.78576 9.99995 6.78576C11.7698 6.78576 13.2142 8.23011 13.2142 9.99998C13.2142 11.7698 11.7698 13.2142 9.99995 13.2142ZM15.148 3.69934C14.509 3.69934 13.993 4.21535 13.993 4.85434C13.993 5.49332 14.509 6.00933 15.148 6.00933C15.787 6.00933 16.303 5.49573 16.303 4.85434C16.3006 4.21294 15.787 3.69934 15.148 3.69934V3.69934Z" fill="#A0B3EE"/>
<path d="M19.6401 9.99999C19.6401 8.66897 19.6522 7.35001 19.5774 6.02141C19.5027 4.4782 19.1507 3.1086 18.0222 1.98013C16.8913 0.849243 15.5241 0.499609 13.9809 0.42486C12.6499 0.350111 11.3309 0.362167 10.0023 0.362167C8.67129 0.362167 7.35233 0.350111 6.02373 0.42486C4.48052 0.499609 3.11092 0.851654 1.98245 1.98013C0.851562 3.11101 0.501929 4.4782 0.42718 6.02141C0.35243 7.35242 0.364487 8.67139 0.364487 9.99999C0.364487 11.3286 0.35243 12.65 0.42718 13.9786C0.501929 15.5218 0.853974 16.8914 1.98245 18.0199C3.11333 19.1507 4.48052 19.5004 6.02373 19.5751C7.35475 19.6499 8.67371 19.6378 10.0023 19.6378C11.3333 19.6378 12.6523 19.6499 13.9809 19.5751C15.5241 19.5004 16.8937 19.1483 18.0222 18.0199C19.1531 16.889 19.5027 15.5218 19.5774 13.9786C19.6546 12.65 19.6401 11.331 19.6401 9.99999V9.99999ZM17.5182 15.6858C17.3422 16.1246 17.13 16.4525 16.79 16.7901C16.45 17.1301 16.1245 17.3423 15.6857 17.5183C14.4173 18.0223 11.4057 17.9089 9.9999 17.9089C8.59413 17.9089 5.58005 18.0223 4.31173 17.5207C3.87288 17.3447 3.54495 17.1325 3.20737 16.7925C2.86738 16.4525 2.65519 16.127 2.47917 15.6882C1.97762 14.4174 2.09095 11.4058 2.09095 9.99999C2.09095 8.59423 1.97762 5.58014 2.47917 4.31182C2.65519 3.87297 2.86738 3.54504 3.20737 3.20746C3.54736 2.86988 3.87288 2.65528 4.31173 2.47926C5.58005 1.97772 8.59413 2.09104 9.9999 2.09104C11.4057 2.09104 14.4198 1.97772 15.6881 2.47926C16.1269 2.65528 16.4549 2.86747 16.7924 3.20746C17.1324 3.54745 17.3446 3.87297 17.5206 4.31182C18.0222 5.58014 17.9089 8.59423 17.9089 9.99999C17.9089 11.4058 18.0222 14.4174 17.5182 15.6858Z" fill="#A0B3EE"/>
</g>
</svg>
