<svg width="40" height="40" viewBox="0 0 40 40" fill="none" xmlns="http://www.w3.org/2000/svg">
  <rect width="40" height="40" rx="8" fill="#31A4FF" fill-opacity="0.15"/>
  <path d="M15.723 29.7779L15.723 13.8888L17.1897 15.8444C17.3842 16.1037 17.6737 16.2751 17.9946 16.321C18.3155 16.3668 18.6415 16.2833 18.9008 16.0888C19.0526 15.975 19.1758 15.8273 19.2607 15.6576C19.3455 15.4879 19.3897 15.3008 19.3897 15.111C19.3897 14.8466 19.3039 14.5892 19.1453 14.3777L15.4785 9.48871C15.3645 9.33922 15.2175 9.21807 15.0489 9.13467C14.8804 9.05128 14.6949 9.00789 14.5069 9.00789C14.3188 9.00789 14.1333 9.05128 13.9648 9.13467C13.7963 9.21807 13.6492 9.33922 13.5352 9.48871L9.86845 14.2066C9.66909 14.4627 9.57963 14.7874 9.61974 15.1095C9.65985 15.4315 9.82625 15.7245 10.0823 15.9238C10.3384 16.1232 10.6632 16.2126 10.9853 16.1725C11.3073 16.1324 11.6002 15.966 11.7996 15.7099L13.2785 13.791L13.2785 29.7779C13.2786 30.1021 13.4073 30.4129 13.6366 30.6421C13.8658 30.8713 14.1766 31 14.5007 31C14.8249 31 15.1357 30.8713 15.3649 30.6421C15.5941 30.4129 15.7229 30.1021 15.723 29.7779ZM24.2787 10.2221L24.2787 26.1112L22.812 24.1556C22.6175 23.8963 22.328 23.7249 22.0071 23.6791C21.6862 23.6333 21.3602 23.7168 21.1009 23.9113C20.8416 24.1058 20.6702 24.3953 20.6243 24.7162C20.5785 25.037 20.662 25.363 20.8564 25.6223L24.5231 30.5113C24.6372 30.6608 24.7842 30.7819 24.9528 30.8653C25.1213 30.9487 25.3068 30.9921 25.4948 30.9921C25.6829 30.9921 25.8684 30.9487 26.0369 30.8653C26.2054 30.7819 26.3524 30.6608 26.4665 30.5113L30.1332 25.7934C30.2988 25.5801 30.3891 25.3179 30.3899 25.0479C30.3895 24.8612 30.3463 24.6771 30.2636 24.5098C30.181 24.3424 30.0611 24.1962 29.9132 24.0823C29.6584 23.8838 29.3354 23.7942 29.0148 23.8332C28.6942 23.8721 28.402 24.0364 28.2021 24.2901L26.7232 26.209L26.7232 10.2221C26.7231 9.89793 26.5943 9.58709 26.3651 9.35792C26.1359 9.12875 25.8251 9 25.5009 9C25.1768 9 24.866 9.12875 24.6367 9.35792C24.4075 9.58709 24.2787 9.89793 24.2787 10.2221Z" fill="url(#paint0_linear_3047_23814)"/>
  <defs>
    <linearGradient id="paint0_linear_3047_23814" x1="30.3899" y1="42.1183" x2="26.9629" y2="2.20344" gradientUnits="userSpaceOnUse">
      <stop stop-color="#F33ABF"/>
      <stop offset="1" stop-color="#03FCF7"/>
    </linearGradient>
  </defs>
</svg>
