<svg viewBox="0 0 40 40" fill="none" xmlns="http://www.w3.org/2000/svg">
<g filter="url(#filter0_d_892_3934)">
<path d="M20.6225 26.21L30 20.77L20.6225 33.7438L11.25 20.7687L20.6225 26.2075V26.21ZM20.6225 3.75L29.9938 19.025L20.6225 24.4662L11.25 19.025L20.6225 3.75Z" fill="black"/>
</g>
<path fill-rule="evenodd" clip-rule="evenodd" d="M20.6226 3.75V14.8375L29.9938 19.025L20.6226 3.75Z" fill="#343434"/>
<path fill-rule="evenodd" clip-rule="evenodd" d="M20.6225 3.75L11.25 19.025L20.6225 14.8375V3.75Z" fill="#8C8C8C"/>
<path fill-rule="evenodd" clip-rule="evenodd" d="M20.6226 26.21V33.7438L30.0001 20.77L20.6226 26.21Z" fill="#3C3C3B"/>
<path fill-rule="evenodd" clip-rule="evenodd" d="M20.6225 33.7438V26.2088L11.25 20.77L20.6225 33.7438Z" fill="#8C8C8C"/>
<path fill-rule="evenodd" clip-rule="evenodd" d="M20.6226 24.4663L29.9938 19.025L20.6226 14.84V24.4663Z" fill="#141414"/>
<path fill-rule="evenodd" clip-rule="evenodd" d="M11.25 19.025L20.6225 24.4663V14.84L11.25 19.025Z" fill="#393939"/>
<defs>
<filter id="filter0_d_892_3934" x="10.25" y="3.25" width="20.75" height="31.9938" filterUnits="userSpaceOnUse" color-interpolation-filters="sRGB">
<feFlood flood-opacity="0" result="BackgroundImageFix"/>
<feColorMatrix in="SourceAlpha" type="matrix" values="0 0 0 0 0 0 0 0 0 0 0 0 0 0 0 0 0 0 127 0" result="hardAlpha"/>
<feOffset dy="0.5"/>
<feGaussianBlur stdDeviation="0.5"/>
<feColorMatrix type="matrix" values="0 0 0 0 0 0 0 0 0 0 0 0 0 0 0 0 0 0 0.204257 0"/>
<feBlend mode="normal" in2="BackgroundImageFix" result="effect1_dropShadow_892_3934"/>
<feBlend mode="normal" in="SourceGraphic" in2="effect1_dropShadow_892_3934" result="shape"/>
</filter>
</defs>
</svg>
