<svg width="20" height="20" viewBox="0 0 20 20" fill="none" xmlns="http://www.w3.org/2000/svg">
<path d="M17.9367 0.00976562H2.04267C0.915566 0.00976562 0 0.92423 0 2.05354V17.9476C0 19.0758 0.914464 19.9903 2.04267 19.9903H17.9367C19.0649 19.9903 19.9794 19.0791 19.9794 17.9476V2.05354C19.9816 0.92423 19.0671 0.00976562 17.9367 0.00976562ZM4.29357 2.32788C5.39864 2.32788 6.29328 3.14759 6.29328 4.15681C6.29328 5.16382 5.39864 5.98353 4.29357 5.98353C3.1885 5.98353 2.29387 5.16382 2.29387 4.15681C2.29167 3.14759 3.18961 2.32788 4.29357 2.32788ZM6.4938 17.6743H2.09335V7.38607H6.4938V17.6743ZM17.6679 17.6237H14.3262V12.138C14.3262 11.0483 13.5969 10.0931 12.429 10.0931C11.26 10.0931 10.8336 10.9833 10.8336 11.8174C10.8336 12.9423 10.8336 17.6248 10.8336 17.6248H7.49089V7.43565H10.8336V8.94397C11.3173 8.26198 12.5469 7.4037 13.8547 7.4037C15.4842 7.4037 15.8191 7.71991 16.4912 8.38978C17.7659 9.66562 17.647 11.4483 17.6657 11.9914H17.669L17.6679 17.6237Z" fill="#12DCF6"/>
</svg>
