<svg width="46" height="46" viewBox="0 0 46 46" fill="none" xmlns="http://www.w3.org/2000/svg">
<path d="M26.6343 7.625L30.8391 2.92751C31.066 2.67546 31.215 2.3628 31.268 2.02751C31.321 1.69221 31.2757 1.3487 31.1377 1.03869C30.9997 0.728685 30.7748 0.46551 30.4904 0.281126C30.206 0.0967433 29.8743 -0.000916508 29.5356 6.4824e-06H16.7055C16.3673 0.000304171 16.0364 0.0986941 15.7528 0.283301C15.4692 0.467907 15.2449 0.73084 15.1071 1.04036C14.9693 1.34989 14.9238 1.69278 14.9761 2.02764C15.0284 2.36251 15.1764 2.67503 15.402 2.92751L19.5787 7.58567C14.671 8.40273 10.2114 10.9376 6.99279 14.7397C3.77416 18.5417 2.00505 23.3645 2 28.3507V40.277C2.00222 41.7927 2.60337 43.2458 3.67192 44.3184C4.74047 45.3909 6.1894 45.9955 7.70166 46H38.2899C39.8037 45.9978 41.2547 45.3941 42.3251 44.3213C43.3955 43.2485 43.9978 41.7942 44 40.277V28.3507C43.9943 23.4022 42.2512 18.6136 39.076 14.8241C35.9009 11.0346 31.4963 8.48603 26.6343 7.625ZM25.6112 3.51188L23.1191 6.28767L20.6299 3.51188H25.6112ZM24.445 36.1499V38.1362C24.4422 38.2515 24.3952 38.3614 24.3138 38.443C24.2324 38.5245 24.1228 38.5716 24.0077 38.5745H22.0259C21.9108 38.5716 21.8012 38.5245 21.7198 38.443C21.6384 38.3614 21.5914 38.2515 21.5886 38.1362V36.2679C20.6275 36.2204 19.672 36.0926 18.7322 35.8858C18.6216 35.8774 18.5182 35.8276 18.4424 35.7465C18.3666 35.6653 18.324 35.5587 18.3229 35.4475V33.8714C18.3251 33.7633 18.3689 33.6602 18.4452 33.5837C18.5214 33.5073 18.6243 33.4633 18.7322 33.4612H18.791C19.6656 33.5792 21.8521 33.6944 22.6678 33.6944C24.63 33.6944 25.1907 32.9948 25.1907 31.7081C25.1907 30.8652 24.7814 30.4241 23.3238 29.5476L20.4365 27.8225C18.3958 26.6257 17.8436 25.3389 17.8436 23.7909C17.8436 21.7737 18.8331 20.1975 21.5746 19.7592V17.9162C21.5811 17.8009 21.6315 17.6926 21.7156 17.6136C21.7996 17.5346 21.9107 17.4911 22.0259 17.492H24.0077C24.1228 17.4948 24.2324 17.5419 24.3138 17.6235C24.3952 17.7051 24.4422 17.8149 24.445 17.9303V19.6834C25.4793 19.7337 26.5093 19.851 27.5285 20.0346C27.7612 20.0936 27.935 20.2397 27.935 20.4448V22.0799C27.9397 22.1323 27.9334 22.1852 27.9164 22.235C27.8995 22.2848 27.8723 22.3306 27.8367 22.3692C27.801 22.4079 27.7577 22.4386 27.7094 22.4594C27.6612 22.4802 27.6091 22.4907 27.5566 22.4901H27.4977C26.04 22.344 24.6132 22.2569 23.1836 22.2569C21.5606 22.2428 20.8766 22.83 20.8766 23.7909C20.8766 24.5213 21.2578 24.9596 22.6846 25.7575L25.3084 27.2185C27.7276 28.5614 28.3695 29.9634 28.3695 31.7137C28.3807 33.5792 27.3912 35.5936 24.445 36.1499Z" fill="url(#paint0_linear_324_1175)"/>
<defs>
<linearGradient id="paint0_linear_324_1175" x1="4.45454" y1="-19.32" x2="53.1108" y2="-14.5894" gradientUnits="userSpaceOnUse">
<stop stop-color="#9D2BBD"/>
<stop offset="0.479167" stop-color="#5632B3"/>
<stop offset="1" stop-color="#1D91BF"/>
</linearGradient>
</defs>
</svg>
