<svg width="13" height="13" viewBox="0 0 13 13" fill="none" xmlns="http://www.w3.org/2000/svg">
<path d="M10.625 8H9.875C9.66406 8 9.5 8.1875 9.5 8.375V11H2V3.5H5.375C5.5625 3.5 5.75 3.33594 5.75 3.125V2.375C5.75 2.1875 5.5625 2 5.375 2H1.625C0.992188 2 0.5 2.51562 0.5 3.125V11.375C0.5 12.0078 0.992188 12.5 1.625 12.5H9.875C10.4844 12.5 11 12.0078 11 11.375V8.375C11 8.1875 10.8125 8 10.625 8ZM11.9375 0.5H8.9375C8.42188 0.5 8.16406 1.10938 8.53906 1.46094L9.35938 2.30469L3.66406 8.02344C3.54688 8.11719 3.47656 8.25781 3.47656 8.42188C3.47656 8.58594 3.54688 8.72656 3.66406 8.82031L4.17969 9.33594C4.29688 9.45312 4.4375 9.52344 4.57812 9.52344C4.74219 9.52344 4.88281 9.45312 4.97656 9.33594L10.6953 3.64062L11.5391 4.46094C11.8906 4.8125 12.5 4.57812 12.5 4.0625V1.0625C12.5 0.757812 12.2422 0.5 11.9375 0.5Z" fill="#12DCF6"/>
</svg>
