<svg width="174" height="56" viewBox="0 0 174 56" fill="none" xmlns="http://www.w3.org/2000/svg">
<path d="M14.3352 0H174V46.5L162.136 56H0V12L14.3352 0Z" fill="url(#paint0_linear_639_1425)"/>
<path d="M14.3352 0H174V46.5L162.136 56H0V12L14.3352 0Z" fill="black" fill-opacity="0.2"/>
<path d="M35.762 32.002H39.902V34H33.242V21.436H35.762V32.002ZM40.8557 28.978C40.8557 27.97 41.0537 27.076 41.4497 26.296C41.8577 25.516 42.4037 24.916 43.0877 24.496C43.7837 24.076 44.5577 23.866 45.4097 23.866C46.1537 23.866 46.8017 24.016 47.3537 24.316C47.9177 24.616 48.3677 24.994 48.7037 25.45V24.028H51.2417V34H48.7037V32.542C48.3797 33.01 47.9297 33.4 47.3537 33.712C46.7897 34.012 46.1357 34.162 45.3917 34.162C44.5517 34.162 43.7837 33.946 43.0877 33.514C42.4037 33.082 41.8577 32.476 41.4497 31.696C41.0537 30.904 40.8557 29.998 40.8557 28.978ZM48.7037 29.014C48.7037 28.402 48.5837 27.88 48.3437 27.448C48.1037 27.004 47.7797 26.668 47.3717 26.44C46.9637 26.2 46.5257 26.08 46.0577 26.08C45.5897 26.08 45.1577 26.194 44.7617 26.422C44.3657 26.65 44.0417 26.986 43.7897 27.43C43.5497 27.862 43.4297 28.378 43.4297 28.978C43.4297 29.578 43.5497 30.106 43.7897 30.562C44.0417 31.006 44.3657 31.348 44.7617 31.588C45.1697 31.828 45.6017 31.948 46.0577 31.948C46.5257 31.948 46.9637 31.834 47.3717 31.606C47.7797 31.366 48.1037 31.03 48.3437 30.598C48.5837 30.154 48.7037 29.626 48.7037 29.014ZM63.1169 24.028V34H60.5789V32.74C60.2549 33.172 59.8289 33.514 59.3009 33.766C58.7849 34.006 58.2209 34.126 57.6089 34.126C56.8289 34.126 56.1389 33.964 55.5389 33.64C54.9389 33.304 54.4649 32.818 54.1169 32.182C53.7809 31.534 53.6129 30.766 53.6129 29.878V24.028H56.1329V29.518C56.1329 30.31 56.3309 30.922 56.7269 31.354C57.1229 31.774 57.6629 31.984 58.3469 31.984C59.0429 31.984 59.5889 31.774 59.9849 31.354C60.3809 30.922 60.5789 30.31 60.5789 29.518V24.028H63.1169ZM71.1293 23.884C72.3173 23.884 73.2773 24.262 74.0093 25.018C74.7413 25.762 75.1073 26.806 75.1073 28.15V34H72.5873V28.492C72.5873 27.7 72.3893 27.094 71.9933 26.674C71.5973 26.242 71.0573 26.026 70.3733 26.026C69.6773 26.026 69.1253 26.242 68.7173 26.674C68.3213 27.094 68.1233 27.7 68.1233 28.492V34H65.6033V24.028H68.1233V25.27C68.4593 24.838 68.8853 24.502 69.4013 24.262C69.9293 24.01 70.5053 23.884 71.1293 23.884ZM76.8557 29.014C76.8557 27.982 77.0657 27.082 77.4857 26.314C77.9057 25.534 78.4877 24.934 79.2317 24.514C79.9757 24.082 80.8277 23.866 81.7877 23.866C83.0237 23.866 84.0437 24.178 84.8477 24.802C85.6637 25.414 86.2097 26.278 86.4857 27.394H83.7677C83.6237 26.962 83.3777 26.626 83.0297 26.386C82.6937 26.134 82.2737 26.008 81.7697 26.008C81.0497 26.008 80.4797 26.272 80.0597 26.8C79.6397 27.316 79.4297 28.054 79.4297 29.014C79.4297 29.962 79.6397 30.7 80.0597 31.228C80.4797 31.744 81.0497 32.002 81.7697 32.002C82.7897 32.002 83.4557 31.546 83.7677 30.634H86.4857C86.2097 31.714 85.6637 32.572 84.8477 33.208C84.0317 33.844 83.0117 34.162 81.7877 34.162C80.8277 34.162 79.9757 33.952 79.2317 33.532C78.4877 33.1 77.9057 32.5 77.4857 31.732C77.0657 30.952 76.8557 30.046 76.8557 29.014ZM93.9478 23.884C94.7038 23.884 95.3758 24.052 95.9638 24.388C96.5518 24.712 97.0078 25.198 97.3318 25.846C97.6678 26.482 97.8358 27.25 97.8358 28.15V34H95.3158V28.492C95.3158 27.7 95.1178 27.094 94.7218 26.674C94.3258 26.242 93.7858 26.026 93.1018 26.026C92.4058 26.026 91.8538 26.242 91.4458 26.674C91.0498 27.094 90.8518 27.7 90.8518 28.492V34H88.3318V20.68H90.8518V25.27C91.1758 24.838 91.6078 24.502 92.1478 24.262C92.6878 24.01 93.2878 23.884 93.9478 23.884ZM112.225 31.606H107.221L106.393 34H103.747L108.265 21.418H111.199L115.717 34H113.053L112.225 31.606ZM111.541 29.59L109.723 24.334L107.905 29.59H111.541ZM119.926 25.468C120.25 25.012 120.694 24.634 121.258 24.334C121.834 24.022 122.488 23.866 123.22 23.866C124.072 23.866 124.84 24.076 125.524 24.496C126.22 24.916 126.766 25.516 127.162 26.296C127.57 27.064 127.774 27.958 127.774 28.978C127.774 29.998 127.57 30.904 127.162 31.696C126.766 32.476 126.22 33.082 125.524 33.514C124.84 33.946 124.072 34.162 123.22 34.162C122.488 34.162 121.84 34.012 121.276 33.712C120.724 33.412 120.274 33.034 119.926 32.578V38.752H117.406V24.028H119.926V25.468ZM125.2 28.978C125.2 28.378 125.074 27.862 124.822 27.43C124.582 26.986 124.258 26.65 123.85 26.422C123.454 26.194 123.022 26.08 122.554 26.08C122.098 26.08 121.666 26.2 121.258 26.44C120.862 26.668 120.538 27.004 120.286 27.448C120.046 27.892 119.926 28.414 119.926 29.014C119.926 29.614 120.046 30.136 120.286 30.58C120.538 31.024 120.862 31.366 121.258 31.606C121.666 31.834 122.098 31.948 122.554 31.948C123.022 31.948 123.454 31.828 123.85 31.588C124.258 31.348 124.582 31.006 124.822 30.562C125.074 30.118 125.2 29.59 125.2 28.978ZM132.125 25.468C132.449 25.012 132.893 24.634 133.457 24.334C134.033 24.022 134.687 23.866 135.419 23.866C136.271 23.866 137.039 24.076 137.723 24.496C138.419 24.916 138.965 25.516 139.361 26.296C139.769 27.064 139.973 27.958 139.973 28.978C139.973 29.998 139.769 30.904 139.361 31.696C138.965 32.476 138.419 33.082 137.723 33.514C137.039 33.946 136.271 34.162 135.419 34.162C134.687 34.162 134.039 34.012 133.475 33.712C132.923 33.412 132.473 33.034 132.125 32.578V38.752H129.605V24.028H132.125V25.468ZM137.399 28.978C137.399 28.378 137.273 27.862 137.021 27.43C136.781 26.986 136.457 26.65 136.049 26.422C135.653 26.194 135.221 26.08 134.753 26.08C134.297 26.08 133.865 26.2 133.457 26.44C133.061 26.668 132.737 27.004 132.485 27.448C132.245 27.892 132.125 28.414 132.125 29.014C132.125 29.614 132.245 30.136 132.485 30.58C132.737 31.024 133.061 31.366 133.457 31.606C133.865 31.834 134.297 31.948 134.753 31.948C135.221 31.948 135.653 31.828 136.049 31.588C136.457 31.348 136.781 31.006 137.021 30.562C137.273 30.118 137.399 29.59 137.399 28.978Z" fill="#052835"/>
<defs>
<linearGradient id="paint0_linear_639_1425" x1="3.15902e-06" y1="42.5" x2="243" y2="-26.5" gradientUnits="userSpaceOnUse">
<stop stop-color="#03FCF7"/>
<stop offset="1" stop-color="#F33ABF"/>
</linearGradient>
</defs>
</svg>
