<svg width="46" height="47" viewBox="0 0 46 47" fill="none" xmlns="http://www.w3.org/2000/svg">
<path d="M13.977 32.5244C16.9466 35.5425 17.2903 38.7868 13.9987 42.1321C11.9594 44.2034 8.65759 45.4479 4.11377 45.9808C3.87866 46.0089 3.64099 46.0076 3.4046 45.9795C1.80737 45.7853 0.640747 44.3656 0.717414 42.7441L0.734025 42.532L0.799192 41.9953C1.35631 37.6636 2.56254 34.4922 4.52139 32.5014C7.81297 29.1574 11.0062 29.5075 13.977 32.5244ZM41.1824 0.818644L41.6961 0.975812L42.1982 1.1432C42.8163 1.35993 43.377 1.71452 43.8377 2.1801C44.2984 2.64568 44.6471 3.21004 44.8573 3.83039C46.8596 9.6801 46.2233 15.6065 42.9956 21.4817C41.6654 23.9019 39.9634 26.1929 37.8921 28.3537L37.3184 28.9402L36.7753 29.4717L36.76 29.6366C36.383 33.1556 33.7137 37.8093 28.7955 43.8264L28.3687 44.3465L27.5829 45.2856C26.6936 46.3411 25.0375 46.0472 24.5188 44.8001L24.4574 44.6327L21.7076 35.8568L21.4585 35.6843C19.9134 34.5836 18.4416 33.3834 17.0527 32.0912L16.369 31.4395L15.6995 30.7751C13.7218 28.7626 11.9418 26.5649 10.3839 24.2124L10.2318 23.976L1.27708 21.0805C0.0171859 20.6716 -0.38915 19.114 0.410745 18.1352L0.516801 18.0151L0.631802 17.9078C7.99697 11.4728 13.4314 8.2822 17.3235 8.54798L17.574 8.5697L17.7197 8.58759L18.048 8.25537C19.8139 6.49969 21.6629 5.00595 23.5962 3.778L24.2428 3.37805L24.8369 3.03049C30.2317 -0.0285291 35.7083 -0.781146 41.1824 0.819922V0.818644ZM24.6747 13.1761C22.4347 15.4174 22.4424 19.0578 24.6925 21.308C26.9427 23.5581 30.5831 23.5658 32.8244 21.3259C35.0643 19.0846 35.0567 15.4442 32.8065 13.194C30.5563 10.9438 26.9159 10.9362 24.6747 13.1761Z" fill="url(#paint0_linear_324_1190)"/>
<defs>
<linearGradient id="paint0_linear_324_1190" x1="2.68736" y1="-19.3188" x2="55.8787" y2="-13.6547" gradientUnits="userSpaceOnUse">
<stop stop-color="#9D2BBD"/>
<stop offset="0.479167" stop-color="#5632B3"/>
<stop offset="1" stop-color="#1D91BF"/>
</linearGradient>
</defs>
</svg>
