<svg width="176" height="58" viewBox="0 0 176 58" fill="none" xmlns="http://www.w3.org/2000/svg">
<path d="M15.3352 1H175V47.5L163.136 57H1V13L15.3352 1Z" fill="url(#paint0_linear_191_1379)"/>
<path d="M36.762 33.002H40.902V35H34.242V22.436H36.762V33.002ZM41.8557 29.978C41.8557 28.97 42.0537 28.076 42.4497 27.296C42.8577 26.516 43.4037 25.916 44.0877 25.496C44.7837 25.076 45.5577 24.866 46.4097 24.866C47.1537 24.866 47.8017 25.016 48.3537 25.316C48.9177 25.616 49.3677 25.994 49.7037 26.45V25.028H52.2417V35H49.7037V33.542C49.3797 34.01 48.9297 34.4 48.3537 34.712C47.7897 35.012 47.1357 35.162 46.3917 35.162C45.5517 35.162 44.7837 34.946 44.0877 34.514C43.4037 34.082 42.8577 33.476 42.4497 32.696C42.0537 31.904 41.8557 30.998 41.8557 29.978ZM49.7037 30.014C49.7037 29.402 49.5837 28.88 49.3437 28.448C49.1037 28.004 48.7797 27.668 48.3717 27.44C47.9637 27.2 47.5257 27.08 47.0577 27.08C46.5897 27.08 46.1577 27.194 45.7617 27.422C45.3657 27.65 45.0417 27.986 44.7897 28.43C44.5497 28.862 44.4297 29.378 44.4297 29.978C44.4297 30.578 44.5497 31.106 44.7897 31.562C45.0417 32.006 45.3657 32.348 45.7617 32.588C46.1697 32.828 46.6017 32.948 47.0577 32.948C47.5257 32.948 47.9637 32.834 48.3717 32.606C48.7797 32.366 49.1037 32.03 49.3437 31.598C49.5837 31.154 49.7037 30.626 49.7037 30.014ZM64.1169 25.028V35H61.5789V33.74C61.2549 34.172 60.8289 34.514 60.3009 34.766C59.7849 35.006 59.2209 35.126 58.6089 35.126C57.8289 35.126 57.1389 34.964 56.5389 34.64C55.9389 34.304 55.4649 33.818 55.1169 33.182C54.7809 32.534 54.6129 31.766 54.6129 30.878V25.028H57.1329V30.518C57.1329 31.31 57.3309 31.922 57.7269 32.354C58.1229 32.774 58.6629 32.984 59.3469 32.984C60.0429 32.984 60.5889 32.774 60.9849 32.354C61.3809 31.922 61.5789 31.31 61.5789 30.518V25.028H64.1169ZM72.1293 24.884C73.3173 24.884 74.2773 25.262 75.0093 26.018C75.7413 26.762 76.1073 27.806 76.1073 29.15V35H73.5873V29.492C73.5873 28.7 73.3893 28.094 72.9933 27.674C72.5973 27.242 72.0573 27.026 71.3733 27.026C70.6773 27.026 70.1253 27.242 69.7173 27.674C69.3213 28.094 69.1233 28.7 69.1233 29.492V35H66.6033V25.028H69.1233V26.27C69.4593 25.838 69.8853 25.502 70.4013 25.262C70.9293 25.01 71.5053 24.884 72.1293 24.884ZM77.8557 30.014C77.8557 28.982 78.0657 28.082 78.4857 27.314C78.9057 26.534 79.4877 25.934 80.2317 25.514C80.9757 25.082 81.8277 24.866 82.7877 24.866C84.0237 24.866 85.0437 25.178 85.8477 25.802C86.6637 26.414 87.2097 27.278 87.4857 28.394H84.7677C84.6237 27.962 84.3777 27.626 84.0297 27.386C83.6937 27.134 83.2737 27.008 82.7697 27.008C82.0497 27.008 81.4797 27.272 81.0597 27.8C80.6397 28.316 80.4297 29.054 80.4297 30.014C80.4297 30.962 80.6397 31.7 81.0597 32.228C81.4797 32.744 82.0497 33.002 82.7697 33.002C83.7897 33.002 84.4557 32.546 84.7677 31.634H87.4857C87.2097 32.714 86.6637 33.572 85.8477 34.208C85.0317 34.844 84.0117 35.162 82.7877 35.162C81.8277 35.162 80.9757 34.952 80.2317 34.532C79.4877 34.1 78.9057 33.5 78.4857 32.732C78.0657 31.952 77.8557 31.046 77.8557 30.014ZM94.9478 24.884C95.7038 24.884 96.3758 25.052 96.9638 25.388C97.5518 25.712 98.0078 26.198 98.3318 26.846C98.6678 27.482 98.8358 28.25 98.8358 29.15V35H96.3158V29.492C96.3158 28.7 96.1178 28.094 95.7218 27.674C95.3258 27.242 94.7858 27.026 94.1018 27.026C93.4058 27.026 92.8538 27.242 92.4458 27.674C92.0498 28.094 91.8518 28.7 91.8518 29.492V35H89.3318V21.68H91.8518V26.27C92.1758 25.838 92.6078 25.502 93.1478 25.262C93.6878 25.01 94.2878 24.884 94.9478 24.884ZM113.225 32.606H108.221L107.393 35H104.747L109.265 22.418H112.199L116.717 35H114.053L113.225 32.606ZM112.541 30.59L110.723 25.334L108.905 30.59H112.541ZM120.926 26.468C121.25 26.012 121.694 25.634 122.258 25.334C122.834 25.022 123.488 24.866 124.22 24.866C125.072 24.866 125.84 25.076 126.524 25.496C127.22 25.916 127.766 26.516 128.162 27.296C128.57 28.064 128.774 28.958 128.774 29.978C128.774 30.998 128.57 31.904 128.162 32.696C127.766 33.476 127.22 34.082 126.524 34.514C125.84 34.946 125.072 35.162 124.22 35.162C123.488 35.162 122.84 35.012 122.276 34.712C121.724 34.412 121.274 34.034 120.926 33.578V39.752H118.406V25.028H120.926V26.468ZM126.2 29.978C126.2 29.378 126.074 28.862 125.822 28.43C125.582 27.986 125.258 27.65 124.85 27.422C124.454 27.194 124.022 27.08 123.554 27.08C123.098 27.08 122.666 27.2 122.258 27.44C121.862 27.668 121.538 28.004 121.286 28.448C121.046 28.892 120.926 29.414 120.926 30.014C120.926 30.614 121.046 31.136 121.286 31.58C121.538 32.024 121.862 32.366 122.258 32.606C122.666 32.834 123.098 32.948 123.554 32.948C124.022 32.948 124.454 32.828 124.85 32.588C125.258 32.348 125.582 32.006 125.822 31.562C126.074 31.118 126.2 30.59 126.2 29.978ZM133.125 26.468C133.449 26.012 133.893 25.634 134.457 25.334C135.033 25.022 135.687 24.866 136.419 24.866C137.271 24.866 138.039 25.076 138.723 25.496C139.419 25.916 139.965 26.516 140.361 27.296C140.769 28.064 140.973 28.958 140.973 29.978C140.973 30.998 140.769 31.904 140.361 32.696C139.965 33.476 139.419 34.082 138.723 34.514C138.039 34.946 137.271 35.162 136.419 35.162C135.687 35.162 135.039 35.012 134.475 34.712C133.923 34.412 133.473 34.034 133.125 33.578V39.752H130.605V25.028H133.125V26.468ZM138.399 29.978C138.399 29.378 138.273 28.862 138.021 28.43C137.781 27.986 137.457 27.65 137.049 27.422C136.653 27.194 136.221 27.08 135.753 27.08C135.297 27.08 134.865 27.2 134.457 27.44C134.061 27.668 133.737 28.004 133.485 28.448C133.245 28.892 133.125 29.414 133.125 30.014C133.125 30.614 133.245 31.136 133.485 31.58C133.737 32.024 134.061 32.366 134.457 32.606C134.865 32.834 135.297 32.948 135.753 32.948C136.221 32.948 136.653 32.828 137.049 32.588C137.457 32.348 137.781 32.006 138.021 31.562C138.273 31.118 138.399 30.59 138.399 29.978Z" fill="#052835"/>
<defs>
<linearGradient id="paint0_linear_191_1379" x1="1" y1="43.5" x2="244" y2="-25.5" gradientUnits="userSpaceOnUse">
<stop stop-color="#03FCF7"/>
<stop offset="1" stop-color="#F33ABF"/>
</linearGradient>
</defs>
</svg>
