<svg width="174" height="56" viewBox="0 0 174 56" fill="none" xmlns="http://www.w3.org/2000/svg">
<path opacity="0.1" d="M1 12.467L14.6985 1H173V46.0197L161.785 55H1V12.467Z" stroke="#916DFE" stroke-opacity="0.4" stroke-width="2"/>
<path d="M14.3352 0H174V46.5L162.136 56H0V12L14.3352 0Z" fill="white" fill-opacity="0.1"/>
<path d="M35.762 32.002H39.902V34H33.242V21.436H35.762V32.002ZM50.7737 28.798C50.7737 29.158 50.7497 29.482 50.7017 29.77H43.4117C43.4717 30.49 43.7237 31.054 44.1677 31.462C44.6117 31.87 45.1577 32.074 45.8057 32.074C46.7417 32.074 47.4077 31.672 47.8037 30.868H50.5217C50.2337 31.828 49.6817 32.62 48.8657 33.244C48.0497 33.856 47.0477 34.162 45.8597 34.162C44.8997 34.162 44.0357 33.952 43.2677 33.532C42.5117 33.1 41.9177 32.494 41.4857 31.714C41.0657 30.934 40.8557 30.034 40.8557 29.014C40.8557 27.982 41.0657 27.076 41.4857 26.296C41.9057 25.516 42.4937 24.916 43.2497 24.496C44.0057 24.076 44.8757 23.866 45.8597 23.866C46.8077 23.866 47.6537 24.07 48.3977 24.478C49.1537 24.886 49.7357 25.468 50.1437 26.224C50.5637 26.968 50.7737 27.826 50.7737 28.798ZM48.1637 28.078C48.1517 27.43 47.9177 26.914 47.4617 26.53C47.0057 26.134 46.4477 25.936 45.7877 25.936C45.1637 25.936 44.6357 26.128 44.2037 26.512C43.7837 26.884 43.5257 27.406 43.4297 28.078H48.1637ZM51.9651 28.978C51.9651 27.97 52.1631 27.076 52.5591 26.296C52.9671 25.516 53.5131 24.916 54.1971 24.496C54.8931 24.076 55.6671 23.866 56.5191 23.866C57.2631 23.866 57.9111 24.016 58.4631 24.316C59.0271 24.616 59.4771 24.994 59.8131 25.45V24.028H62.3511V34H59.8131V32.542C59.4891 33.01 59.0391 33.4 58.4631 33.712C57.8991 34.012 57.2451 34.162 56.5011 34.162C55.6611 34.162 54.8931 33.946 54.1971 33.514C53.5131 33.082 52.9671 32.476 52.5591 31.696C52.1631 30.904 51.9651 29.998 51.9651 28.978ZM59.8131 29.014C59.8131 28.402 59.6931 27.88 59.4531 27.448C59.2131 27.004 58.8891 26.668 58.4811 26.44C58.0731 26.2 57.6351 26.08 57.1671 26.08C56.6991 26.08 56.2671 26.194 55.8711 26.422C55.4751 26.65 55.1511 26.986 54.8991 27.43C54.6591 27.862 54.5391 28.378 54.5391 28.978C54.5391 29.578 54.6591 30.106 54.8991 30.562C55.1511 31.006 55.4751 31.348 55.8711 31.588C56.2791 31.828 56.7111 31.948 57.1671 31.948C57.6351 31.948 58.0731 31.834 58.4811 31.606C58.8891 31.366 59.2131 31.03 59.4531 30.598C59.6931 30.154 59.8131 29.626 59.8131 29.014ZM67.3323 25.576C67.6563 25.048 68.0763 24.634 68.5923 24.334C69.1203 24.034 69.7203 23.884 70.3923 23.884V26.53H69.7263C68.9343 26.53 68.3343 26.716 67.9263 27.088C67.5303 27.46 67.3323 28.108 67.3323 29.032V34H64.8123V24.028H67.3323V25.576ZM77.6157 23.884C78.8037 23.884 79.7637 24.262 80.4957 25.018C81.2277 25.762 81.5937 26.806 81.5937 28.15V34H79.0737V28.492C79.0737 27.7 78.8757 27.094 78.4797 26.674C78.0837 26.242 77.5437 26.026 76.8597 26.026C76.1637 26.026 75.6117 26.242 75.2037 26.674C74.8077 27.094 74.6097 27.7 74.6097 28.492V34H72.0897V24.028H74.6097V25.27C74.9457 24.838 75.3717 24.502 75.8877 24.262C76.4157 24.01 76.9917 23.884 77.6157 23.884ZM101.977 21.436V34H99.4571V25.828L96.0911 34H94.1831L90.7991 25.828V34H88.2791V21.436H91.1411L95.1371 30.778L99.1331 21.436H101.977ZM108.897 34.162C107.937 34.162 107.073 33.952 106.305 33.532C105.537 33.1 104.931 32.494 104.487 31.714C104.055 30.934 103.839 30.034 103.839 29.014C103.839 27.994 104.061 27.094 104.505 26.314C104.961 25.534 105.579 24.934 106.359 24.514C107.139 24.082 108.009 23.866 108.969 23.866C109.929 23.866 110.799 24.082 111.579 24.514C112.359 24.934 112.971 25.534 113.415 26.314C113.871 27.094 114.099 27.994 114.099 29.014C114.099 30.034 113.865 30.934 113.397 31.714C112.941 32.494 112.317 33.1 111.525 33.532C110.745 33.952 109.869 34.162 108.897 34.162ZM108.897 31.966C109.353 31.966 109.779 31.858 110.175 31.642C110.583 31.414 110.907 31.078 111.147 30.634C111.387 30.19 111.507 29.65 111.507 29.014C111.507 28.066 111.255 27.34 110.751 26.836C110.259 26.32 109.653 26.062 108.933 26.062C108.213 26.062 107.607 26.32 107.115 26.836C106.635 27.34 106.395 28.066 106.395 29.014C106.395 29.962 106.629 30.694 107.097 31.21C107.577 31.714 108.177 31.966 108.897 31.966ZM118.467 25.576C118.791 25.048 119.211 24.634 119.727 24.334C120.255 24.034 120.855 23.884 121.527 23.884V26.53H120.861C120.069 26.53 119.469 26.716 119.061 27.088C118.665 27.46 118.467 28.108 118.467 29.032V34H115.947V24.028H118.467V25.576ZM132.494 28.798C132.494 29.158 132.47 29.482 132.422 29.77H125.132C125.192 30.49 125.444 31.054 125.888 31.462C126.332 31.87 126.878 32.074 127.526 32.074C128.462 32.074 129.128 31.672 129.524 30.868H132.242C131.954 31.828 131.402 32.62 130.586 33.244C129.77 33.856 128.768 34.162 127.58 34.162C126.62 34.162 125.756 33.952 124.988 33.532C124.232 33.1 123.638 32.494 123.206 31.714C122.786 30.934 122.576 30.034 122.576 29.014C122.576 27.982 122.786 27.076 123.206 26.296C123.626 25.516 124.214 24.916 124.97 24.496C125.726 24.076 126.596 23.866 127.58 23.866C128.528 23.866 129.374 24.07 130.118 24.478C130.874 24.886 131.456 25.468 131.864 26.224C132.284 26.968 132.494 27.826 132.494 28.798ZM129.884 28.078C129.872 27.43 129.638 26.914 129.182 26.53C128.726 26.134 128.168 25.936 127.508 25.936C126.884 25.936 126.356 26.128 125.924 26.512C125.504 26.884 125.246 27.406 125.15 28.078H129.884Z" fill="#916DFE"/>
</svg>
