<svg width="176" height="58" viewBox="0 0 176 58" fill="none" xmlns="http://www.w3.org/2000/svg">
<g opacity="0.1">
<path d="M15.3352 1H175V47.5L163.136 57H1V13L15.3352 1Z" fill="url(#paint0_linear_191_1384)"/>
<path d="M2 13.467L15.6985 2H174V47.0197L162.785 56H2V13.467Z" stroke="#916DFE" stroke-opacity="0.4" stroke-width="2"/>
</g>
<path d="M36.762 33.002H40.902V35H34.242V22.436H36.762V33.002ZM51.7737 29.798C51.7737 30.158 51.7497 30.482 51.7017 30.77H44.4117C44.4717 31.49 44.7237 32.054 45.1677 32.462C45.6117 32.87 46.1577 33.074 46.8057 33.074C47.7417 33.074 48.4077 32.672 48.8037 31.868H51.5217C51.2337 32.828 50.6817 33.62 49.8657 34.244C49.0497 34.856 48.0477 35.162 46.8597 35.162C45.8997 35.162 45.0357 34.952 44.2677 34.532C43.5117 34.1 42.9177 33.494 42.4857 32.714C42.0657 31.934 41.8557 31.034 41.8557 30.014C41.8557 28.982 42.0657 28.076 42.4857 27.296C42.9057 26.516 43.4937 25.916 44.2497 25.496C45.0057 25.076 45.8757 24.866 46.8597 24.866C47.8077 24.866 48.6537 25.07 49.3977 25.478C50.1537 25.886 50.7357 26.468 51.1437 27.224C51.5637 27.968 51.7737 28.826 51.7737 29.798ZM49.1637 29.078C49.1517 28.43 48.9177 27.914 48.4617 27.53C48.0057 27.134 47.4477 26.936 46.7877 26.936C46.1637 26.936 45.6357 27.128 45.2037 27.512C44.7837 27.884 44.5257 28.406 44.4297 29.078H49.1637ZM52.9651 29.978C52.9651 28.97 53.1631 28.076 53.5591 27.296C53.9671 26.516 54.5131 25.916 55.1971 25.496C55.8931 25.076 56.6671 24.866 57.5191 24.866C58.2631 24.866 58.9111 25.016 59.4631 25.316C60.0271 25.616 60.4771 25.994 60.8131 26.45V25.028H63.3511V35H60.8131V33.542C60.4891 34.01 60.0391 34.4 59.4631 34.712C58.8991 35.012 58.2451 35.162 57.5011 35.162C56.6611 35.162 55.8931 34.946 55.1971 34.514C54.5131 34.082 53.9671 33.476 53.5591 32.696C53.1631 31.904 52.9651 30.998 52.9651 29.978ZM60.8131 30.014C60.8131 29.402 60.6931 28.88 60.4531 28.448C60.2131 28.004 59.8891 27.668 59.4811 27.44C59.0731 27.2 58.6351 27.08 58.1671 27.08C57.6991 27.08 57.2671 27.194 56.8711 27.422C56.4751 27.65 56.1511 27.986 55.8991 28.43C55.6591 28.862 55.5391 29.378 55.5391 29.978C55.5391 30.578 55.6591 31.106 55.8991 31.562C56.1511 32.006 56.4751 32.348 56.8711 32.588C57.2791 32.828 57.7111 32.948 58.1671 32.948C58.6351 32.948 59.0731 32.834 59.4811 32.606C59.8891 32.366 60.2131 32.03 60.4531 31.598C60.6931 31.154 60.8131 30.626 60.8131 30.014ZM68.3323 26.576C68.6563 26.048 69.0763 25.634 69.5923 25.334C70.1203 25.034 70.7203 24.884 71.3923 24.884V27.53H70.7263C69.9343 27.53 69.3343 27.716 68.9263 28.088C68.5303 28.46 68.3323 29.108 68.3323 30.032V35H65.8123V25.028H68.3323V26.576ZM78.6157 24.884C79.8037 24.884 80.7637 25.262 81.4957 26.018C82.2277 26.762 82.5937 27.806 82.5937 29.15V35H80.0737V29.492C80.0737 28.7 79.8757 28.094 79.4797 27.674C79.0837 27.242 78.5437 27.026 77.8597 27.026C77.1637 27.026 76.6117 27.242 76.2037 27.674C75.8077 28.094 75.6097 28.7 75.6097 29.492V35H73.0897V25.028H75.6097V26.27C75.9457 25.838 76.3717 25.502 76.8877 25.262C77.4157 25.01 77.9917 24.884 78.6157 24.884ZM102.977 22.436V35H100.457V26.828L97.0911 35H95.1831L91.7991 26.828V35H89.2791V22.436H92.1411L96.1371 31.778L100.133 22.436H102.977ZM109.897 35.162C108.937 35.162 108.073 34.952 107.305 34.532C106.537 34.1 105.931 33.494 105.487 32.714C105.055 31.934 104.839 31.034 104.839 30.014C104.839 28.994 105.061 28.094 105.505 27.314C105.961 26.534 106.579 25.934 107.359 25.514C108.139 25.082 109.009 24.866 109.969 24.866C110.929 24.866 111.799 25.082 112.579 25.514C113.359 25.934 113.971 26.534 114.415 27.314C114.871 28.094 115.099 28.994 115.099 30.014C115.099 31.034 114.865 31.934 114.397 32.714C113.941 33.494 113.317 34.1 112.525 34.532C111.745 34.952 110.869 35.162 109.897 35.162ZM109.897 32.966C110.353 32.966 110.779 32.858 111.175 32.642C111.583 32.414 111.907 32.078 112.147 31.634C112.387 31.19 112.507 30.65 112.507 30.014C112.507 29.066 112.255 28.34 111.751 27.836C111.259 27.32 110.653 27.062 109.933 27.062C109.213 27.062 108.607 27.32 108.115 27.836C107.635 28.34 107.395 29.066 107.395 30.014C107.395 30.962 107.629 31.694 108.097 32.21C108.577 32.714 109.177 32.966 109.897 32.966ZM119.467 26.576C119.791 26.048 120.211 25.634 120.727 25.334C121.255 25.034 121.855 24.884 122.527 24.884V27.53H121.861C121.069 27.53 120.469 27.716 120.061 28.088C119.665 28.46 119.467 29.108 119.467 30.032V35H116.947V25.028H119.467V26.576ZM133.494 29.798C133.494 30.158 133.47 30.482 133.422 30.77H126.132C126.192 31.49 126.444 32.054 126.888 32.462C127.332 32.87 127.878 33.074 128.526 33.074C129.462 33.074 130.128 32.672 130.524 31.868H133.242C132.954 32.828 132.402 33.62 131.586 34.244C130.77 34.856 129.768 35.162 128.58 35.162C127.62 35.162 126.756 34.952 125.988 34.532C125.232 34.1 124.638 33.494 124.206 32.714C123.786 31.934 123.576 31.034 123.576 30.014C123.576 28.982 123.786 28.076 124.206 27.296C124.626 26.516 125.214 25.916 125.97 25.496C126.726 25.076 127.596 24.866 128.58 24.866C129.528 24.866 130.374 25.07 131.118 25.478C131.874 25.886 132.456 26.468 132.864 27.224C133.284 27.968 133.494 28.826 133.494 29.798ZM130.884 29.078C130.872 28.43 130.638 27.914 130.182 27.53C129.726 27.134 129.168 26.936 128.508 26.936C127.884 26.936 127.356 27.128 126.924 27.512C126.504 27.884 126.246 28.406 126.15 29.078H130.884Z" fill="#916DFE"/>
<defs>
<linearGradient id="paint0_linear_191_1384" x1="1" y1="43.5" x2="244" y2="-25.5" gradientUnits="userSpaceOnUse">
<stop stop-color="#03FCF7"/>
<stop offset="1" stop-color="#F33ABF"/>
</linearGradient>
</defs>
</svg>
