<svg width="48" height="51" viewBox="0 0 48 51" fill="none" xmlns="http://www.w3.org/2000/svg">
<path d="M43.027 0L43.0283 27.6818C44.5793 28.9031 45.8327 30.461 46.694 32.2379C47.5553 34.0148 48.0018 35.9642 48 37.939C48 45.1524 42.1555 51 34.9459 51C31.3903 51 28.1653 49.577 25.8106 47.2683H2V0H43.027ZM34.9459 28.6098C32.473 28.6098 30.1013 29.5927 28.3526 31.3422C26.604 33.0918 25.6216 35.4647 25.6216 37.939C25.6216 40.4133 26.604 42.7862 28.3526 44.5358C30.1013 46.2854 32.473 47.2683 34.9459 47.2683C37.4189 47.2683 39.7906 46.2854 41.5392 44.5358C43.2879 42.7862 44.2703 40.4133 44.2703 37.939C44.2703 35.4647 43.2879 33.0918 41.5392 31.3422C39.7906 29.5927 37.4189 28.6098 34.9459 28.6098ZM39.2973 3.73171H5.72973V43.5366H23.1476C22.318 41.7874 21.889 39.8751 21.8919 37.939C21.8919 30.7256 27.7364 24.878 34.9459 24.878C36.4714 24.878 37.9359 25.1393 39.2973 25.6219V3.73171ZM34.9459 31.7195L36.7735 35.4226L40.8576 36.0172L37.9024 38.9006L38.5986 42.9706L34.9459 41.0488L31.292 42.9706L31.9895 38.9006L29.0343 36.0172L33.1196 35.4226L34.9459 31.7195ZM20.027 26.7439V30.4756H11.3243V26.7439H20.027ZM33.7027 18.0366V21.7683H11.3243V18.0366H33.7027ZM33.7027 9.32927V13.061H11.3243V9.32927H33.7027Z" fill="url(#paint0_linear_324_1160)"/>
<defs>
<linearGradient id="paint0_linear_324_1160" x1="4.68831" y1="-21.42" x2="57.9906" y2="-16.3006" gradientUnits="userSpaceOnUse">
<stop stop-color="#9D2BBD"/>
<stop offset="0.479167" stop-color="#5632B3"/>
<stop offset="1" stop-color="#1D91BF"/>
</linearGradient>
</defs>
</svg>
