<svg width="270" height="39" viewBox="0 0 270 39" fill="none" xmlns="http://www.w3.org/2000/svg">
    <path d="M21.3177 28.3909C23.2006 28.3864 25.0048 27.6353 26.3346 26.3023C27.6644 24.9694 28.4112 23.1634 28.4112 21.2805V16.7061C28.4023 14.8291 27.6515 13.0318 26.3227 11.7061C24.9938 10.3804 23.1947 9.63399 21.3177 9.62955H16.7264C14.8435 9.62954 13.0375 10.3763 11.7045 11.7061C10.3716 13.036 9.62045 14.8402 9.61597 16.723V21.3143C9.61597 21.3482 9.61597 21.3821 9.61597 21.4159H-4.19617e-05V13.564C-4.19617e-05 9.96717 1.42855 6.51764 3.97156 3.974C6.51457 1.43036 9.96376 0.000897854 13.5606 0H24.4598C28.0569 0.000897596 31.5065 1.43025 34.05 3.97379C36.5936 6.51734 38.0229 9.96686 38.0238 13.564V24.4395C38.0229 28.0363 36.5934 31.4855 34.0498 34.0285C31.5062 36.5715 28.0566 38.0001 24.4598 38.0001H19.0999V28.3909H21.3177Z" fill="url(#paint0_linear_208_5884)"/>
    <path d="M9.61942 21.3992C9.64522 23.262 10.4031 25.0397 11.7293 26.3481C13.0554 27.6565 14.8432 28.3904 16.7062 28.3911H19.0763V38.0004H13.5606C11.7792 38.0026 10.0148 37.6534 8.36858 36.9727C6.72233 36.292 5.22653 35.2932 3.96687 34.0335C2.70721 32.7739 1.70844 31.2781 1.02774 29.6318C0.347048 27.9856 -0.00218582 26.2212 4.19617e-05 24.4398V17.0991H9.61942V21.3992Z" fill="url(#paint1_radial_208_5884)"/>
    <path d="M64.5824 16.0979C64.5824 16.426 64.5199 16.7385 64.3949 17.0354C64.2699 17.3245 64.098 17.5784 63.8793 17.7971C63.6605 18.0159 63.4027 18.1877 63.1058 18.3127C62.8168 18.4377 62.5082 18.5002 62.1801 18.5002H52.5824C52.2543 18.5002 51.9418 18.4377 51.6449 18.3127C51.3558 18.1877 51.1019 18.0159 50.8832 17.7971C50.6644 17.5784 50.4926 17.3245 50.3676 17.0354C50.2426 16.7385 50.1801 16.426 50.1801 16.0979V4.0979C50.1801 3.76978 50.2426 3.46118 50.3676 3.17212C50.4926 2.87524 50.6644 2.62134 50.8832 2.4104C51.1019 2.19165 51.3558 2.01978 51.6449 1.89478C51.9418 1.76196 52.2543 1.69556 52.5824 1.69556H62.1801C62.5082 1.69556 62.8168 1.76196 63.1058 1.89478C63.4027 2.01978 63.6605 2.19165 63.8793 2.4104C64.098 2.62134 64.2699 2.87524 64.3949 3.17212C64.5199 3.46118 64.5824 3.76978 64.5824 4.0979V16.0979ZM52.5824 4.0979V16.0979H62.1801V4.0979H52.5824ZM71.309 18.5002H68.9066V1.69556H71.309L81.4105 14.7268V1.69556H83.8129V18.5002H81.4105L71.309 5.46899V18.5002ZM88.1254 1.69556H100.371V4.0979H90.5277V8.90259H98.9301V11.3049H90.5277V16.0979H100.371V18.5002H88.1254V1.69556ZM106.371 1.69556V16.0979H115.008V18.5002H103.969V1.69556H106.371ZM125.332 1.69556L131.813 18.5002H129.411L127.922 14.6331H120.34L118.852 18.5002H116.45L122.93 1.69556H125.332ZM121.254 12.2307H126.996L124.137 4.82446L121.254 12.2307ZM137.098 18.5002H134.696V1.69556H137.098L147.2 14.7268V1.69556H149.602V18.5002H147.2L137.098 5.46899V18.5002ZM162.457 16.0979C163.575 16.0979 164.434 15.7971 165.036 15.1956C165.637 14.594 165.938 13.7346 165.938 12.6174V7.57837C165.938 7.03149 165.86 6.54321 165.703 6.11353C165.547 5.68384 165.317 5.32056 165.012 5.02368C164.715 4.71899 164.352 4.48853 163.922 4.33228C163.493 4.17603 163.004 4.0979 162.457 4.0979H156.317V16.0979H162.457ZM153.914 18.5002V1.69556H162.457C163.356 1.69556 164.164 1.83618 164.883 2.11743C165.61 2.39087 166.227 2.7854 166.735 3.30103C167.25 3.80884 167.645 4.42603 167.918 5.15259C168.2 5.87915 168.34 6.68774 168.34 7.57837V12.6174C168.34 13.5081 168.2 14.3167 167.918 15.0432C167.645 15.7698 167.25 16.3909 166.735 16.9065C166.227 17.4143 165.61 17.8088 164.883 18.0901C164.164 18.3635 163.356 18.5002 162.457 18.5002H153.914Z" fill="white"/>
    <path d="M54.8698 32.3302H50.6138L49.8298 34.5002H48.4858L52.0138 24.7982H53.4838L56.9978 34.5002H55.6538L54.8698 32.3302ZM54.5058 31.2942L52.7418 26.3662L50.9778 31.2942H54.5058ZM58.0594 30.6502C58.0594 29.8569 58.2181 29.1662 58.5354 28.5782C58.8527 27.9809 59.2914 27.5189 59.8514 27.1922C60.4207 26.8656 61.0694 26.7022 61.7974 26.7022C62.7401 26.7022 63.5147 26.9309 64.1214 27.3882C64.7374 27.8456 65.1434 28.4802 65.3394 29.2922H63.9674C63.8367 28.8256 63.5801 28.4569 63.1974 28.1862C62.8241 27.9156 62.3574 27.7802 61.7974 27.7802C61.0694 27.7802 60.4814 28.0322 60.0334 28.5362C59.5854 29.0309 59.3614 29.7356 59.3614 30.6502C59.3614 31.5742 59.5854 32.2882 60.0334 32.7922C60.4814 33.2962 61.0694 33.5482 61.7974 33.5482C62.3574 33.5482 62.8241 33.4176 63.1974 33.1562C63.5707 32.8949 63.8274 32.5216 63.9674 32.0362H65.3394C65.1341 32.8202 64.7234 33.4502 64.1074 33.9262C63.4914 34.3929 62.7214 34.6262 61.7974 34.6262C61.0694 34.6262 60.4207 34.4629 59.8514 34.1362C59.2914 33.8096 58.8527 33.3476 58.5354 32.7502C58.2181 32.1529 58.0594 31.4529 58.0594 30.6502ZM68.5933 27.8782V32.4002C68.5933 32.7736 68.6726 33.0396 68.8313 33.1982C68.99 33.3476 69.2653 33.4222 69.6573 33.4222H70.5953V34.5002H69.4473C68.738 34.5002 68.206 34.3369 67.8513 34.0102C67.4966 33.6836 67.3193 33.1469 67.3193 32.4002V27.8782H66.3253V26.8282H67.3193V24.8962H68.5933V26.8282H70.5953V27.8782H68.5933ZM72.7969 25.5822C72.5542 25.5822 72.3489 25.4982 72.1809 25.3302C72.0129 25.1622 71.9289 24.9569 71.9289 24.7142C71.9289 24.4716 72.0129 24.2662 72.1809 24.0982C72.3489 23.9302 72.5542 23.8462 72.7969 23.8462C73.0302 23.8462 73.2262 23.9302 73.3849 24.0982C73.5529 24.2662 73.6369 24.4716 73.6369 24.7142C73.6369 24.9569 73.5529 25.1622 73.3849 25.3302C73.2262 25.4982 73.0302 25.5822 72.7969 25.5822ZM73.4129 26.8282V34.5002H72.1389V26.8282H73.4129ZM78.4402 33.3242L80.8202 26.8282H82.1782L79.1682 34.5002H77.6842L74.6742 26.8282H76.0462L78.4402 33.3242ZM90.4319 30.3702C90.4319 30.6129 90.4179 30.8696 90.3899 31.1402H84.2579C84.3045 31.8962 84.5612 32.4889 85.0279 32.9182C85.5039 33.3382 86.0779 33.5482 86.7499 33.5482C87.3005 33.5482 87.7579 33.4222 88.1219 33.1702C88.4952 32.9089 88.7565 32.5636 88.9059 32.1342H90.2779C90.0725 32.8716 89.6619 33.4736 89.0459 33.9402C88.4299 34.3976 87.6645 34.6262 86.7499 34.6262C86.0219 34.6262 85.3685 34.4629 84.7899 34.1362C84.2205 33.8096 83.7725 33.3476 83.4459 32.7502C83.1192 32.1436 82.9559 31.4436 82.9559 30.6502C82.9559 29.8569 83.1145 29.1616 83.4319 28.5642C83.7492 27.9669 84.1925 27.5096 84.7619 27.1922C85.3405 26.8656 86.0032 26.7022 86.7499 26.7022C87.4779 26.7022 88.1219 26.8609 88.6819 27.1782C89.2419 27.4956 89.6712 27.9342 89.9699 28.4942C90.2779 29.0449 90.4319 29.6702 90.4319 30.3702ZM89.1159 30.1042C89.1159 29.6189 89.0085 29.2036 88.7939 28.8582C88.5792 28.5036 88.2852 28.2376 87.9119 28.0602C87.5479 27.8736 87.1419 27.7802 86.6939 27.7802C86.0499 27.7802 85.4992 27.9856 85.0419 28.3962C84.5939 28.8069 84.3372 29.3762 84.2719 30.1042H89.1159ZM102.454 26.8282L97.8339 38.1122H96.5179L98.0299 34.4162L94.9359 26.8282H96.3499L98.7579 33.0442L101.138 26.8282H102.454ZM107.081 34.6262C106.362 34.6262 105.709 34.4629 105.121 34.1362C104.542 33.8096 104.085 33.3476 103.749 32.7502C103.422 32.1436 103.259 31.4436 103.259 30.6502C103.259 29.8662 103.427 29.1756 103.763 28.5782C104.108 27.9716 104.575 27.5096 105.163 27.1922C105.751 26.8656 106.409 26.7022 107.137 26.7022C107.865 26.7022 108.523 26.8656 109.111 27.1922C109.699 27.5096 110.161 27.9669 110.497 28.5642C110.842 29.1616 111.015 29.8569 111.015 30.6502C111.015 31.4436 110.837 32.1436 110.483 32.7502C110.137 33.3476 109.666 33.8096 109.069 34.1362C108.471 34.4629 107.809 34.6262 107.081 34.6262ZM107.081 33.5062C107.538 33.5062 107.967 33.3989 108.369 33.1842C108.77 32.9696 109.092 32.6476 109.335 32.2182C109.587 31.7889 109.713 31.2662 109.713 30.6502C109.713 30.0342 109.591 29.5116 109.349 29.0822C109.106 28.6529 108.789 28.3356 108.397 28.1302C108.005 27.9156 107.58 27.8082 107.123 27.8082C106.656 27.8082 106.227 27.9156 105.835 28.1302C105.452 28.3356 105.144 28.6529 104.911 29.0822C104.677 29.5116 104.561 30.0342 104.561 30.6502C104.561 31.2756 104.673 31.8029 104.897 32.2322C105.13 32.6616 105.438 32.9836 105.821 33.1982C106.203 33.4036 106.623 33.5062 107.081 33.5062ZM119.494 26.8282V34.5002H118.22V33.3662C117.977 33.7582 117.636 34.0662 117.198 34.2902C116.768 34.5049 116.292 34.6122 115.77 34.6122C115.172 34.6122 114.636 34.4909 114.16 34.2482C113.684 33.9962 113.306 33.6229 113.026 33.1282C112.755 32.6336 112.62 32.0316 112.62 31.3222V26.8282H113.88V31.1542C113.88 31.9102 114.071 32.4936 114.454 32.9042C114.836 33.3056 115.359 33.5062 116.022 33.5062C116.703 33.5062 117.24 33.2962 117.632 32.8762C118.024 32.4562 118.22 31.8449 118.22 31.0422V26.8282H119.494ZM122.919 28.0742C123.143 27.6356 123.46 27.2949 123.871 27.0522C124.291 26.8096 124.799 26.6882 125.397 26.6882V28.0042H125.061C123.633 28.0042 122.919 28.7789 122.919 30.3282V34.5002H121.645V26.8282H122.919V28.0742ZM131.874 24.1402V34.5002H130.6V24.1402H131.874ZM133.569 30.6362C133.569 29.8522 133.728 29.1662 134.045 28.5782C134.362 27.9809 134.796 27.5189 135.347 27.1922C135.907 26.8656 136.528 26.7022 137.209 26.7022C137.881 26.7022 138.464 26.8469 138.959 27.1362C139.454 27.4256 139.822 27.7896 140.065 28.2282V26.8282H141.353V34.5002H140.065V33.0722C139.813 33.5202 139.435 33.8936 138.931 34.1922C138.436 34.4816 137.858 34.6262 137.195 34.6262C136.514 34.6262 135.898 34.4582 135.347 34.1222C134.796 33.7862 134.362 33.3149 134.045 32.7082C133.728 32.1016 133.569 31.4109 133.569 30.6362ZM140.065 30.6502C140.065 30.0716 139.948 29.5676 139.715 29.1382C139.482 28.7089 139.164 28.3822 138.763 28.1582C138.371 27.9249 137.937 27.8082 137.461 27.8082C136.985 27.8082 136.551 27.9202 136.159 28.1442C135.767 28.3682 135.454 28.6949 135.221 29.1242C134.988 29.5536 134.871 30.0576 134.871 30.6362C134.871 31.2242 134.988 31.7376 135.221 32.1762C135.454 32.6056 135.767 32.9369 136.159 33.1702C136.551 33.3942 136.985 33.5062 137.461 33.5062C137.937 33.5062 138.371 33.3942 138.763 33.1702C139.164 32.9369 139.482 32.6056 139.715 32.1762C139.948 31.7376 140.065 31.2289 140.065 30.6502ZM147.244 26.6882C148.177 26.6882 148.933 26.9729 149.512 27.5422C150.091 28.1022 150.38 28.9142 150.38 29.9782V34.5002H149.12V30.1602C149.12 29.3949 148.929 28.8116 148.546 28.4102C148.163 27.9996 147.641 27.7942 146.978 27.7942C146.306 27.7942 145.769 28.0042 145.368 28.4242C144.976 28.8442 144.78 29.4556 144.78 30.2582V34.5002H143.506V26.8282H144.78V27.9202C145.032 27.5282 145.373 27.2249 145.802 27.0102C146.241 26.7956 146.721 26.6882 147.244 26.6882ZM151.985 30.6362C151.985 29.8522 152.144 29.1662 152.461 28.5782C152.779 27.9809 153.213 27.5189 153.763 27.1922C154.323 26.8656 154.949 26.7022 155.639 26.7022C156.237 26.7022 156.792 26.8422 157.305 27.1222C157.819 27.3929 158.211 27.7522 158.481 28.2002V24.1402H159.769V34.5002H158.481V33.0582C158.229 33.5156 157.856 33.8936 157.361 34.1922C156.867 34.4816 156.288 34.6262 155.625 34.6262C154.944 34.6262 154.323 34.4582 153.763 34.1222C153.213 33.7862 152.779 33.3149 152.461 32.7082C152.144 32.1016 151.985 31.4109 151.985 30.6362ZM158.481 30.6502C158.481 30.0716 158.365 29.5676 158.131 29.1382C157.898 28.7089 157.581 28.3822 157.179 28.1582C156.787 27.9249 156.353 27.8082 155.877 27.8082C155.401 27.8082 154.967 27.9202 154.575 28.1442C154.183 28.3682 153.871 28.6949 153.637 29.1242C153.404 29.5536 153.287 30.0576 153.287 30.6362C153.287 31.2242 153.404 31.7376 153.637 32.1762C153.871 32.6056 154.183 32.9369 154.575 33.1702C154.967 33.3942 155.401 33.5062 155.877 33.5062C156.353 33.5062 156.787 33.3942 157.179 33.1702C157.581 32.9369 157.898 32.6056 158.131 32.1762C158.365 31.7376 158.481 31.2289 158.481 30.6502Z" fill="white"/>
    <defs>
        <linearGradient id="paint0_linear_208_5884" x1="13.1373" y1="34.0623" x2="37.6621" y2="-4.61518" gradientUnits="userSpaceOnUse">
            <stop offset="0.0625" stop-color="#277EFF"/>
            <stop offset="0.697917" stop-color="#12DCF6"/>
        </linearGradient>
        <radialGradient id="paint1_radial_208_5884" cx="0" cy="0" r="1" gradientUnits="userSpaceOnUse" gradientTransform="translate(6.66211 31.8849) rotate(29.2488) scale(28.6531)">
            <stop offset="0.151571" stop-color="#F33ABF"/>
            <stop offset="1" stop-color="#2C1783"/>
        </radialGradient>
    </defs>
</svg>
