<svg width="221" height="67" viewBox="0 0 221 67" fill="none" xmlns="http://www.w3.org/2000/svg">
  <path d="M21.3042 28.3907C23.1859 28.3862 24.989 27.6351 26.318 26.3021C27.6469 24.9692 28.3932 23.1632 28.3932 21.2803V16.706C28.3843 14.829 27.634 13.0317 26.306 11.706C24.978 10.3804 23.1801 9.63392 21.3042 9.62947H16.7159C14.8342 9.62947 13.0293 10.3763 11.6972 11.7061C10.3651 13.0359 9.61443 14.8401 9.60995 16.7229V21.3142C9.60995 21.348 9.60995 21.3819 9.60995 21.4158H3.8147e-05V13.5639C3.8147e-05 9.9671 1.42773 6.51759 3.96912 3.97397C6.51052 1.43034 9.95751 0.000897848 13.552 0H24.4444C28.0392 0.000897589 31.4866 1.43024 34.0285 3.97376C36.5704 6.51729 37.9989 9.96679 37.9998 13.5639V24.4394C37.9989 28.0361 36.5703 31.4853 34.0283 34.0283C31.4863 36.5713 28.0389 37.9999 24.4444 37.9999H19.0879V28.3907H21.3042Z" fill="url(#paint0_linear_208_5886)"/>
  <path d="M9.61346 21.3989C9.63924 23.2617 10.3967 25.0394 11.722 26.3478C13.0473 27.6562 14.8339 28.3901 16.6957 28.3908H19.0643V38H13.5522C11.7719 38.0022 10.0086 37.653 8.36341 36.9723C6.7182 36.2916 5.22336 35.2928 3.96449 34.0332C2.70563 32.7735 1.7075 31.2777 1.02723 29.6315C0.346972 27.9852 -0.00204086 26.2209 0.000185013 24.4395V17.0989H9.61346V21.3989Z" fill="url(#paint1_radial_208_5886)"/>
  <path d="M16.5586 62.5977C16.5586 62.9258 16.4961 63.2383 16.3711 63.5352C16.2461 63.8242 16.0742 64.0781 15.8555 64.2969C15.6367 64.5156 15.3789 64.6875 15.082 64.8125C14.793 64.9375 14.4844 65 14.1562 65H4.55859C4.23047 65 3.91797 64.9375 3.62109 64.8125C3.33203 64.6875 3.07812 64.5156 2.85938 64.2969C2.64062 64.0781 2.46875 63.8242 2.34375 63.5352C2.21875 63.2383 2.15625 62.9258 2.15625 62.5977V50.5977C2.15625 50.2695 2.21875 49.9609 2.34375 49.6719C2.46875 49.375 2.64062 49.1211 2.85938 48.9102C3.07812 48.6914 3.33203 48.5195 3.62109 48.3945C3.91797 48.2617 4.23047 48.1953 4.55859 48.1953H14.1562C14.4844 48.1953 14.793 48.2617 15.082 48.3945C15.3789 48.5195 15.6367 48.6914 15.8555 48.9102C16.0742 49.1211 16.2461 49.375 16.3711 49.6719C16.4961 49.9609 16.5586 50.2695 16.5586 50.5977V62.5977ZM4.55859 50.5977V62.5977H14.1562V50.5977H4.55859ZM23.2852 65H20.8828V48.1953H23.2852L33.3867 61.2266V48.1953H35.7891V65H33.3867L23.2852 51.9688V65ZM40.1016 48.1953H52.3477V50.5977H42.5039V55.4023H50.9062V57.8047H42.5039V62.5977H52.3477V65H40.1016V48.1953ZM58.3477 48.1953V62.5977H66.9844V65H55.9453V48.1953H58.3477ZM77.3086 48.1953L83.7891 65H81.3867L79.8984 61.1328H72.3164L70.8281 65H68.4258L74.9062 48.1953H77.3086ZM73.2305 58.7305H78.9727L76.1133 51.3242L73.2305 58.7305ZM89.0742 65H86.6719V48.1953H89.0742L99.1758 61.2266V48.1953H101.578V65H99.1758L89.0742 51.9688V65ZM114.434 62.5977C115.551 62.5977 116.41 62.2969 117.012 61.6953C117.613 61.0938 117.914 60.2344 117.914 59.1172V54.0781C117.914 53.5312 117.836 53.043 117.68 52.6133C117.523 52.1836 117.293 51.8203 116.988 51.5234C116.691 51.2188 116.328 50.9883 115.898 50.832C115.469 50.6758 114.98 50.5977 114.434 50.5977H108.293V62.5977H114.434ZM105.891 65V48.1953H114.434C115.332 48.1953 116.141 48.3359 116.859 48.6172C117.586 48.8906 118.203 49.2852 118.711 49.8008C119.227 50.3086 119.621 50.9258 119.895 51.6523C120.176 52.3789 120.316 53.1875 120.316 54.0781V59.1172C120.316 60.0078 120.176 60.8164 119.895 61.543C119.621 62.2695 119.227 62.8906 118.711 63.4062C118.203 63.9141 117.586 64.3086 116.859 64.5898C116.141 64.8633 115.332 65 114.434 65H105.891Z" fill="white"/>
  <defs>
    <linearGradient id="paint0_linear_208_5886" x1="13.129" y1="34.0621" x2="37.6602" y2="-4.60122" gradientUnits="userSpaceOnUse">
      <stop offset="0.0625" stop-color="#277EFF"/>
      <stop offset="0.697917" stop-color="#12DCF6"/>
    </linearGradient>
    <radialGradient id="paint1_radial_208_5886" cx="0" cy="0" r="1" gradientUnits="userSpaceOnUse" gradientTransform="translate(6.65803 31.8845) rotate(29.2642) scale(28.6392 28.6486)">
      <stop offset="0.151571" stop-color="#F33ABF"/>
      <stop offset="1" stop-color="#2C1783"/>
    </radialGradient>
  </defs>
</svg>
