<svg width="337" height="336" viewBox="0 0 337 336" fill="none" xmlns="http://www.w3.org/2000/svg">
  <path d="M188.497 251.033C205.145 250.994 221.098 244.352 232.856 232.566C244.614 220.78 251.218 204.811 251.218 188.163V147.716C251.139 131.119 244.5 115.227 232.751 103.506C221.001 91.7842 205.093 85.1841 188.497 85.1447H147.9C131.252 85.1447 115.283 91.748 103.497 103.506C91.7103 115.264 85.069 131.217 85.0294 147.866V188.462C85.0294 188.761 85.0294 189.061 85.0294 189.36H0.00416293V119.933C0.00416194 88.1301 12.6359 57.6292 35.1213 35.1382C57.6066 12.6472 88.1045 0.00793886 119.908 0H216.279C248.085 0.00793657 278.586 12.6463 301.076 35.1364C323.566 57.6265 336.205 88.1273 336.213 119.933V216.095C336.205 247.898 323.565 278.396 301.074 300.881C278.583 323.367 248.083 335.998 216.279 335.998H168.674V251.033H188.497Z" fill="url(#paint0_linear_204_2710)"/>
  <path d="M85.0577 189.212C85.2858 205.683 91.9875 221.402 103.714 232.97C115.44 244.539 131.248 251.028 147.721 251.035H168.678V336H119.907C104.155 336.02 88.554 332.932 73.9974 326.913C59.4407 320.894 46.2143 312.063 35.076 300.925C23.9377 289.787 15.1063 276.561 9.08734 262.005C3.06842 247.449 -0.0196075 231.848 9.15527e-05 216.097V151.19H85.0577V189.212Z" fill="url(#paint1_radial_204_2710)"/>
  <defs>
    <linearGradient id="paint0_linear_204_2710" x1="116.165" y1="301.18" x2="333.014" y2="-40.8079" gradientUnits="userSpaceOnUse">
      <stop offset="0.0625" stop-color="#277EFF"/>
      <stop offset="0.697917" stop-color="#12DCF6"/>
    </linearGradient>
    <radialGradient id="paint1_radial_204_2710" cx="0" cy="0" r="1" gradientUnits="userSpaceOnUse" gradientTransform="translate(58.9082 281.927) rotate(29.248) scale(253.358 253.353)">
      <stop offset="0.151571" stop-color="#F33ABF"/>
      <stop offset="1" stop-color="#2C1783"/>
    </radialGradient>
  </defs>
</svg>
