<svg width="172" height="38" viewBox="0 0 172 38" fill="none" opacity="0.3" xmlns="http://www.w3.org/2000/svg">
    <path d="M21.6556 28.3909C23.5385 28.3864 25.3427 27.6353 26.6725 26.3023C28.0023 24.9694 28.7491 23.1634 28.7491 21.2805V16.7061C28.7401 14.8291 27.9894 13.0318 26.6605 11.7061C25.3317 10.3804 23.5326 9.63399 21.6556 9.62955H17.0643C15.1814 9.62954 13.3754 10.3763 12.0424 11.7061C10.7094 13.036 9.95834 14.8402 9.95386 16.723V21.3143C9.95386 21.3482 9.95386 21.3821 9.95386 21.4159H0.337849V13.564C0.337849 9.96717 1.76645 6.51764 4.30945 3.974C6.85246 1.43036 10.3016 0.000897854 13.8985 0H24.7977C28.3948 0.000897596 31.8444 1.43025 34.3879 3.97379C36.9314 6.51734 38.3608 9.96686 38.3617 13.564V24.4395C38.3608 28.0363 36.9313 31.4855 34.3877 34.0285C31.8441 36.5715 28.3945 38.0001 24.7977 38.0001H19.4378V28.3909H21.6556Z" fill="url(#paint0_linear_199_1872)"/>
    <path d="M9.95731 21.3991C9.98311 23.2619 10.741 25.0396 12.0672 26.348C13.3933 27.6564 15.1811 28.3903 17.044 28.391H19.4142V38.0002H13.8985C12.1171 38.0025 10.3527 37.6532 8.70647 36.9725C7.06022 36.2918 5.56442 35.2931 4.30476 34.0334C3.0451 32.7737 2.04633 31.2779 1.36563 29.6317C0.684938 27.9854 0.335705 26.2211 0.337933 24.4396V17.099H9.95731V21.3991Z" fill="url(#paint1_radial_199_1872)"/>
    <path d="M64.9203 24.0978C64.9203 24.4259 64.8578 24.7384 64.7328 25.0353C64.6078 25.3243 64.4359 25.5782 64.2172 25.797C63.9984 26.0157 63.7406 26.1876 63.4437 26.3126C63.1547 26.4376 62.8461 26.5001 62.5179 26.5001H52.9203C52.5922 26.5001 52.2797 26.4376 51.9828 26.3126C51.6937 26.1876 51.4398 26.0157 51.2211 25.797C51.0023 25.5782 50.8304 25.3243 50.7054 25.0353C50.5804 24.7384 50.5179 24.4259 50.5179 24.0978V12.0978C50.5179 11.7697 50.5804 11.4611 50.7054 11.172C50.8304 10.8751 51.0023 10.6212 51.2211 10.4103C51.4398 10.1915 51.6937 10.0197 51.9828 9.89465C52.2797 9.76184 52.5922 9.69543 52.9203 9.69543H62.5179C62.8461 9.69543 63.1547 9.76184 63.4437 9.89465C63.7406 10.0197 63.9984 10.1915 64.2172 10.4103C64.4359 10.6212 64.6078 10.8751 64.7328 11.172C64.8578 11.4611 64.9203 11.7697 64.9203 12.0978V24.0978ZM52.9203 12.0978V24.0978H62.5179V12.0978H52.9203ZM71.6469 26.5001H69.2445V9.69543H71.6469L81.7484 22.7267V9.69543H84.1508V26.5001H81.7484L71.6469 13.4689V26.5001ZM88.4633 9.69543H100.709V12.0978H90.8656V16.9025H99.2679V19.3048H90.8656V24.0978H100.709V26.5001H88.4633V9.69543ZM106.709 9.69543V24.0978H115.346V26.5001H104.307V9.69543H106.709ZM125.67 9.69543L132.151 26.5001H129.748L128.26 22.6329H120.678L119.19 26.5001H116.787L123.268 9.69543H125.67ZM121.592 20.2306H127.334L124.475 12.8243L121.592 20.2306ZM137.436 26.5001H135.034V9.69543H137.436L147.537 22.7267V9.69543H149.94V26.5001H147.537L137.436 13.4689V26.5001ZM162.795 24.0978C163.912 24.0978 164.772 23.797 165.373 23.1954C165.975 22.5939 166.276 21.7345 166.276 20.6173V15.5782C166.276 15.0314 166.198 14.5431 166.041 14.1134C165.885 13.6837 165.655 13.3204 165.35 13.0236C165.053 12.7189 164.69 12.4884 164.26 12.3322C163.83 12.1759 163.342 12.0978 162.795 12.0978H156.655V24.0978H162.795ZM154.252 26.5001V9.69543H162.795C163.694 9.69543 164.502 9.83606 165.221 10.1173C165.948 10.3907 166.565 10.7853 167.073 11.3009C167.588 11.8087 167.983 12.4259 168.256 13.1525C168.537 13.879 168.678 14.6876 168.678 15.5782V20.6173C168.678 21.5079 168.537 22.3165 168.256 23.0431C167.983 23.7697 167.588 24.3907 167.073 24.9064C166.565 25.4142 165.948 25.8087 165.221 26.09C164.502 26.3634 163.694 26.5001 162.795 26.5001H154.252Z" fill="rgba(65,67,76,0.817)"/>
    <defs>
        <linearGradient id="paint0_linear_199_1872" x1="13.4752" y1="34.0623" x2="38" y2="-4.61518" gradientUnits="userSpaceOnUse">
            <stop offset="0.0625" stop-color="rgba(138,138,138,0.721)"/>
            <stop offset="0.697917" stop-color="rgba(69,69,69,0.714)"/>
        </linearGradient>
        <radialGradient id="paint1_radial_199_1872" cx="0" cy="0" r="1" gradientUnits="userSpaceOnUse" gradientTransform="translate(7 31.8848) rotate(29.2488) scale(28.6531)">
            <stop offset="0.151571" stop-color="#454545"/>
            <stop offset="1" stop-color="#3f3f3f"/>
        </radialGradient>
    </defs>
</svg>
