<svg viewBox="0 0 39 39" fill="none" xmlns="http://www.w3.org/2000/svg">
<path d="M21.6556 28.5061C23.5385 28.5017 25.3427 27.7506 26.6725 26.4176C28.0023 25.0846 28.7491 23.2786 28.7491 21.3957V16.8213C28.7401 14.9443 27.9894 13.147 26.6605 11.8214C25.3317 10.4957 23.5326 9.74923 21.6556 9.74478H17.0643C15.1814 9.74477 13.3754 10.4916 12.0424 11.8214C10.7094 13.1512 9.95834 14.9554 9.95386 16.8383V21.4296C9.95386 21.4634 9.95386 21.4973 9.95386 21.5312H0.337849V13.6792C0.337849 10.0824 1.76645 6.63287 4.30945 4.08923C6.85246 1.54559 10.3016 0.116132 13.8985 0.115234H24.7977C28.3948 0.116132 31.8444 1.54548 34.3879 4.08903C36.9314 6.63257 38.3608 10.0821 38.3617 13.6792V24.5548C38.3608 28.1516 36.9313 31.6008 34.3877 34.1438C31.8441 36.6868 28.3945 38.1154 24.7977 38.1154H19.4378V28.5061H21.6556Z" fill="url(#paint0_linear_199_1871)"/>
<path d="M9.95731 21.5143C9.98311 23.3771 10.741 25.1548 12.0672 26.4632C13.3933 27.7716 15.1811 28.5055 17.044 28.5062H19.4142V38.1155H13.8985C12.1171 38.1177 10.3527 37.7685 8.70647 37.0878C7.06022 36.4071 5.56442 35.4083 4.30476 34.1486C3.0451 32.889 2.04633 31.3932 1.36563 29.7469C0.684938 28.1007 0.335705 26.3363 0.337933 24.5549V17.2142H9.95731V21.5143Z" fill="url(#paint1_radial_199_1871)"/>
<defs>
<linearGradient id="paint0_linear_199_1871" x1="13.4752" y1="34.1776" x2="38" y2="-4.49994" gradientUnits="userSpaceOnUse">
<stop offset="0.0625" stop-color="#277EFF"/>
<stop offset="0.697917" stop-color="#12DCF6"/>
</linearGradient>
<radialGradient id="paint1_radial_199_1871" cx="0" cy="0" r="1" gradientUnits="userSpaceOnUse" gradientTransform="translate(7 32) rotate(29.2488) scale(28.6531)">
<stop offset="0.151571" stop-color="#F33ABF"/>
<stop offset="1" stop-color="#2C1783"/>
</radialGradient>
</defs>
</svg>
