<svg width="100" height="100" viewBox="0 0 100 100" fill="none" xmlns="http://www.w3.org/2000/svg">
<g opacity="0.8">
<mask id="mask0_208_3283" style="mask-type:alpha" maskUnits="userSpaceOnUse" x="0" y="0" width="91" height="91">
<path d="M90.6681 32.5173C89.2052 27.3605 83.0562 23.9189 74.29 22.4668C75.5929 23.999 76.7815 25.634 77.8216 27.372C82.7019 28.7555 86.0164 30.9165 86.7707 33.5921C87.2165 35.1471 86.8393 36.9651 85.6392 39.0117C84.3592 41.2071 82.039 43.6768 78.8274 46.1465C78.8274 45.9864 78.8503 45.8378 78.8503 45.6777C78.8503 28.0123 64.3579 13.6855 46.4711 13.6855C28.5957 13.6855 14.0919 28.0123 14.0919 45.6777C14.0919 51.086 15.4634 56.1741 17.8636 60.6448C11.4632 59.3527 7.07435 56.9173 6.17144 53.7615C5.7257 52.2065 6.10286 50.3885 7.30294 48.3418C7.95441 47.2328 8.93733 46.0436 10.0917 44.8431C10.1374 42.7621 10.3431 40.7268 10.7432 38.7488C4.19417 44.0427 0.845395 49.794 2.28548 54.8363C3.87415 60.4161 10.9375 64.0064 20.8809 65.2069C26.8013 72.7762 36.059 77.6699 46.4825 77.6699C62.3578 77.6699 75.5358 66.3732 78.3016 51.4747C87.4108 45.4491 92.3711 38.4972 90.6681 32.5173ZM46.4825 73.668C38.7449 73.668 31.7387 70.5923 26.6299 65.6185C27.3156 65.6414 28.0128 65.6528 28.7214 65.6528C35.7618 65.6528 43.6938 64.6695 51.8657 62.6C59.9919 60.5419 67.3181 57.6719 73.3985 54.379C69.684 65.5842 59.0433 73.668 46.4825 73.668ZM74.5757 49.0736C68.6325 52.7668 60.6434 56.2656 50.8599 58.7467C43.2823 60.6562 35.6247 61.6738 28.71 61.6738C26.7099 61.6738 24.8355 61.8453 23.0296 61.6853C19.9552 57.2032 18.1493 51.509 18.1493 45.6892C18.1493 30.2305 30.8358 17.6989 46.4825 17.6989C62.1292 17.6989 74.8157 30.2305 74.8157 45.6892C74.8043 46.8326 74.7129 47.9645 74.5757 49.0736ZM32.3102 53.6815C27.8414 53.6815 24.2183 50.0912 24.2183 45.6777C24.2183 41.2642 27.8528 37.6854 32.3102 37.6854C36.7791 37.6854 40.4021 41.2757 40.4021 45.6777C40.4021 50.0912 36.7676 53.6815 32.3102 53.6815ZM32.3102 41.6759C30.0815 41.6759 28.2642 43.471 28.2642 45.6777C28.2642 47.8845 30.0815 49.6796 32.3102 49.6796C34.5389 49.6796 36.3562 47.8845 36.3562 45.6777C36.3562 43.471 34.5389 41.6759 32.3102 41.6759ZM49.5113 31.6826C46.7225 31.6826 44.4481 29.4415 44.4481 26.6859C44.4481 23.9304 46.7111 21.6893 49.5113 21.6893C52.3 21.6893 54.5745 23.9304 54.5745 26.6859C54.563 29.4415 52.3 31.6826 49.5113 31.6826ZM49.5113 25.6798C48.9512 25.6798 48.4941 26.1257 48.4941 26.6745C48.4941 27.2233 48.9512 27.6693 49.5113 27.6693C50.0713 27.6693 50.5285 27.2233 50.5285 26.6745C50.5171 26.1371 50.0713 25.6798 49.5113 25.6798ZM60.6434 49.6796C58.4147 49.6796 56.5974 47.8845 56.5974 45.6777C56.5974 43.471 58.4147 41.6759 60.6434 41.6759C62.8721 41.6759 64.6894 43.471 64.6894 45.6777C64.6894 47.8845 62.8721 49.6796 60.6434 49.6796Z" fill="black"/>
</mask>
<g mask="url(#mask0_208_3283)">
<rect width="100" height="100" transform="matrix(-1 0 0 1 100 0)" fill="url(#paint0_linear_208_3283)"/>
</g>
</g>
<defs>
<linearGradient id="paint0_linear_208_3283" x1="65.4497" y1="89.6374" x2="0.89385" y2="-12.1087" gradientUnits="userSpaceOnUse">
<stop offset="0.0625" stop-color="#277EFF"/>
<stop offset="0.697917" stop-color="#12DCF6"/>
</linearGradient>
</defs>
</svg>
