<svg width="8" height="15" viewBox="0 0 8 15" fill="none" xmlns="http://www.w3.org/2000/svg">
<path d="M3.125 9.41797V13.7109L3.72656 14.6133C3.83594 14.8047 4.13672 14.8047 4.24609 14.6133L4.875 13.7109V9.41797C4.57422 9.47266 4.27344 9.5 4 9.5C3.69922 9.5 3.39844 9.47266 3.125 9.41797ZM4 0.75C1.8125 0.75 0.0625 2.52734 0.0625 4.6875C0.0625 6.875 1.8125 8.625 4 8.625C6.16016 8.625 7.9375 6.875 7.9375 4.6875C7.9375 2.52734 6.16016 0.75 4 0.75ZM4 2.82812C2.96094 2.82812 2.14062 3.67578 2.14062 4.6875C2.14062 4.87891 1.97656 5.01562 1.8125 5.01562C1.62109 5.01562 1.48438 4.87891 1.48438 4.6875C1.48438 3.32031 2.60547 2.17188 4 2.17188C4.16406 2.17188 4.32812 2.33594 4.32812 2.5C4.32812 2.69141 4.16406 2.82812 4 2.82812Z" fill="#7E96B8"/>
</svg>
