<svg width="40" height="40" viewBox="0 0 40 40" fill="none" xmlns="http://www.w3.org/2000/svg">
  <g clip-path="url(#clip0_1977_13336)">
    <path d="M10.625 27.5C10.3787 27.4997 10.1349 27.5481 9.90736 27.6424C9.67986 27.7367 9.47324 27.875 9.29937 28.0494L5.54937 31.7994C5.37029 31.9723 5.22745 32.1792 5.12918 32.408C5.03092 32.6367 4.97919 32.8828 4.97703 33.1317C4.97487 33.3807 5.02231 33.6276 5.11658 33.858C5.21086 34.0885 5.35009 34.2978 5.52613 34.4739C5.70218 34.6499 5.91153 34.7891 6.14196 34.8834C6.37239 34.9777 6.61929 35.0251 6.86825 35.023C7.11721 35.0208 7.36325 34.9691 7.59201 34.8708C7.82077 34.7725 8.02766 34.6297 8.20063 34.4506L11.9506 30.7006C12.2128 30.4384 12.3913 30.1043 12.4636 29.7407C12.5359 29.377 12.4988 29.0001 12.3569 28.6575C12.215 28.315 11.9748 28.0222 11.6665 27.8161C11.3582 27.6101 10.9958 27.5001 10.625 27.5ZM8.75 20C8.75 19.5027 8.55246 19.0258 8.20083 18.6742C7.84919 18.3225 7.37228 18.125 6.875 18.125H1.875C1.37772 18.125 0.900805 18.3225 0.549175 18.6742C0.197544 19.0258 0 19.5027 0 20C0 20.4973 0.197544 20.9742 0.549175 21.3258C0.900805 21.6775 1.37772 21.875 1.875 21.875H6.875C7.37228 21.875 7.84919 21.6775 8.20083 21.3258C8.55246 20.9742 8.75 20.4973 8.75 20ZM8.20063 5.54937C8.02766 5.37029 7.82077 5.22745 7.59201 5.12918C7.36325 5.03092 7.11721 4.97919 6.86825 4.97703C6.61929 4.97487 6.37239 5.02231 6.14196 5.11658C5.91153 5.21086 5.70218 5.35009 5.52613 5.52613C5.35009 5.70218 5.21086 5.91153 5.11658 6.14196C5.02231 6.37239 4.97487 6.61929 4.97703 6.86825C4.97919 7.11721 5.03092 7.36325 5.12918 7.59201C5.22745 7.82077 5.37029 8.02766 5.54937 8.20063L9.29937 11.9506C9.47234 12.1297 9.67923 12.2725 9.90799 12.3708C10.1367 12.4691 10.3828 12.5208 10.6317 12.523C10.8807 12.5251 11.1276 12.4777 11.358 12.3834C11.5885 12.2891 11.7978 12.1499 11.9739 11.9739C12.1499 11.7978 12.2891 11.5885 12.3834 11.358C12.4777 11.1276 12.5251 10.8807 12.523 10.6317C12.5208 10.3828 12.4691 10.1367 12.3708 9.90799C12.2725 9.67923 12.1297 9.47234 11.9506 9.29937L8.20063 5.54937ZM29.375 12.5C29.6213 12.5003 29.8651 12.4519 30.0926 12.3576C30.3201 12.2633 30.5268 12.125 30.7006 11.9506L34.4506 8.20063C34.6297 8.02766 34.7725 7.82077 34.8708 7.59201C34.9691 7.36325 35.0208 7.11721 35.023 6.86825C35.0251 6.61929 34.9777 6.37239 34.8834 6.14196C34.7891 5.91153 34.6499 5.70218 34.4739 5.52613C34.2978 5.35009 34.0885 5.21086 33.858 5.11658C33.6276 5.02231 33.3807 4.97487 33.1317 4.97703C32.8828 4.97919 32.6367 5.03092 32.408 5.12918C32.1792 5.22745 31.9723 5.37029 31.7994 5.54937L28.0494 9.29937C27.7872 9.5616 27.6087 9.89565 27.5364 10.2593C27.4641 10.623 27.5012 10.9999 27.6431 11.3425C27.785 11.685 28.0252 11.9778 28.3335 12.1839C28.6418 12.3899 29.0042 12.4999 29.375 12.5ZM30.7006 28.0494C30.5277 27.8703 30.3208 27.7275 30.092 27.6292C29.8633 27.5309 29.6172 27.4792 29.3683 27.477C29.1193 27.4749 28.8724 27.5223 28.642 27.6166C28.4115 27.7109 28.2022 27.8501 28.0261 28.0261C27.8501 28.2022 27.7109 28.4115 27.6166 28.642C27.5223 28.8724 27.4749 29.1193 27.477 29.3683C27.4792 29.6172 27.5309 29.8633 27.6292 30.092C27.7275 30.3208 27.8703 30.5277 28.0494 30.7006L31.7994 34.4506C31.9723 34.6297 32.1792 34.7725 32.408 34.8708C32.6367 34.9691 32.8828 35.0208 33.1317 35.023C33.3807 35.0251 33.6276 34.9777 33.858 34.8834C34.0885 34.7891 34.2978 34.6499 34.4739 34.4739C34.6499 34.2978 34.7891 34.0885 34.8834 33.858C34.9777 33.6276 35.0251 33.3807 35.023 33.1317C35.0208 32.8828 34.9691 32.6367 34.8708 32.408C34.7725 32.1792 34.6297 31.9723 34.4506 31.7994L30.7006 28.0494ZM20 31.25C19.5027 31.25 19.0258 31.4475 18.6742 31.7992C18.3225 32.1508 18.125 32.6277 18.125 33.125V38.125C18.125 38.6223 18.3225 39.0992 18.6742 39.4508C19.0258 39.8025 19.5027 40 20 40C20.4973 40 20.9742 39.8025 21.3258 39.4508C21.6775 39.0992 21.875 38.6223 21.875 38.125V33.125C21.875 32.6277 21.6775 32.1508 21.3258 31.7992C20.9742 31.4475 20.4973 31.25 20 31.25ZM38.125 18.125H33.125C32.6277 18.125 32.1508 18.3225 31.7992 18.6742C31.4475 19.0258 31.25 19.5027 31.25 20C31.25 20.4973 31.4475 20.9742 31.7992 21.3258C32.1508 21.6775 32.6277 21.875 33.125 21.875H38.125C38.6223 21.875 39.0992 21.6775 39.4508 21.3258C39.8025 20.9742 40 20.4973 40 20C40 19.5027 39.8025 19.0258 39.4508 18.6742C39.0992 18.3225 38.6223 18.125 38.125 18.125ZM20 0C19.5027 0 19.0258 0.197544 18.6742 0.549175C18.3225 0.900805 18.125 1.37772 18.125 1.875V6.875C18.125 7.37228 18.3225 7.84919 18.6742 8.20083C19.0258 8.55246 19.5027 8.75 20 8.75C20.4973 8.75 20.9742 8.55246 21.3258 8.20083C21.6775 7.84919 21.875 7.37228 21.875 6.875V1.875C21.875 1.37772 21.6775 0.900805 21.3258 0.549175C20.9742 0.197544 20.4973 0 20 0V0Z" fill="#7E96B8"/>
  </g>
  <defs>
    <clipPath id="clip0_1977_13336">
      <rect width="40" height="40" fill="white"/>
    </clipPath>
  </defs>
</svg>
