<svg width="53" height="46" viewBox="0 0 53 46" fill="none" xmlns="http://www.w3.org/2000/svg">
<path d="M41.7759 31.6444L40.0676 28.2318L38.3603 31.6444L34.5415 32.1924L37.3039 34.8496L36.652 38.6004L40.0676 36.8293L43.482 38.6004L42.8312 34.8496L45.5936 32.1924L41.7759 31.6444Z" fill="url(#paint0_linear_324_1180)"/>
<path fill-rule="evenodd" clip-rule="evenodd" d="M52.2702 33.9785C52.2621 40.5842 46.8593 45.9432 40.1741 45.9996C33.5909 45.9479 28.2703 40.5953 28.2703 34C28.2703 27.3726 33.6428 22 40.2703 22C46.8905 22 52.2586 27.361 52.2702 33.9785ZM33.9043 27.8841C35.5389 26.2717 37.7559 25.3659 40.0676 25.3659C42.3792 25.3659 44.5962 26.2717 46.2309 27.8841C47.8655 29.4964 48.7838 31.6833 48.7838 33.9635C48.7838 36.2437 47.8655 38.4305 46.2309 40.0429C44.5962 41.6552 42.3792 42.561 40.0676 42.561C37.7559 42.561 35.5389 41.6552 33.9043 40.0429C32.2697 38.4305 31.3513 36.2437 31.3513 33.9635C31.3513 31.6833 32.2697 29.4964 33.9043 27.8841Z" fill="url(#paint1_linear_324_1180)"/>
<path fill-rule="evenodd" clip-rule="evenodd" d="M44.4032 16.9251L52.1673 20.601L46.6455 23.8317C45.6697 23.2186 44.5995 22.7421 43.4616 22.429L46.1594 20.8508L41.4804 18.6351L26.2188 27.5635L10.9576 18.6351L6.27813 20.8508L26.2188 32.5161L28.6203 31.1112C28.3916 32.0365 28.2703 33.0041 28.2703 34C28.2703 34.1925 28.2748 34.3839 28.2838 34.5741L26.2192 35.782L10.958 26.8535L6.27854 29.0689L26.2188 40.7345L29.3217 38.9193C29.7108 39.7841 30.1994 40.5944 30.7729 41.3358L26.2188 44L0.270264 28.8194L8.0343 25.1439L0.270264 20.6014L8.0343 16.9248L0.279201 12.3877L26.2192 0L52.1583 12.3881L44.4032 16.9251ZM41.0217 15.6387L46.1688 12.6273L41.3305 10.3173L36.5186 13.1247L41.0217 15.6387ZM19.0076 20.0796L23.423 17.503L18.5226 14.6438L13.9792 17.1374L19.0076 20.0796ZM26.0587 10.507L21.404 13.0621L26.2188 15.8717L30.8389 13.1757L26.0587 10.507ZM30.6374 21.7127L26.2188 19.1343L21.8001 21.7127L26.2188 24.298L30.6374 21.7127ZM33.6968 14.7706L29.0149 17.5026L33.4303 20.0789L38.2036 17.2867L33.6968 14.7706ZM33.6607 11.5287L38.2552 8.84763L33.3487 6.50445L28.9686 8.90917L33.6607 11.5287ZM30.2247 5.01261L26.2188 3.09984L22.0922 5.07051L26.0721 7.29207L30.2247 5.01261ZM23.1618 8.88987L18.9816 6.55616L14.1827 8.84799L18.5721 11.4096L23.1618 8.88987ZM11.1075 10.3165L6.26919 12.6269L11.151 15.4828L15.6907 12.9911L11.1075 10.3165Z" fill="url(#paint2_linear_324_1180)"/>
<defs>
<linearGradient id="paint0_linear_324_1180" x1="3.30323" y1="-18.48" x2="63.0513" y2="-10.9759" gradientUnits="userSpaceOnUse">
<stop stop-color="#9D2BBD"/>
<stop offset="0.479167" stop-color="#5632B3"/>
<stop offset="1" stop-color="#1D91BF"/>
</linearGradient>
<linearGradient id="paint1_linear_324_1180" x1="3.30323" y1="-18.48" x2="63.0513" y2="-10.9759" gradientUnits="userSpaceOnUse">
<stop stop-color="#9D2BBD"/>
<stop offset="0.479167" stop-color="#5632B3"/>
<stop offset="1" stop-color="#1D91BF"/>
</linearGradient>
<linearGradient id="paint2_linear_324_1180" x1="3.30323" y1="-18.48" x2="63.0513" y2="-10.9759" gradientUnits="userSpaceOnUse">
<stop stop-color="#9D2BBD"/>
<stop offset="0.479167" stop-color="#5632B3"/>
<stop offset="1" stop-color="#1D91BF"/>
</linearGradient>
</defs>
</svg>
