<svg viewBox="0 0 16 16" fill="none" xmlns="http://www.w3.org/2000/svg">
<mask id="mask0_4872_36890" style="mask-type:alpha" maskUnits="userSpaceOnUse" x="0" y="0" width="16" height="16">
<circle cx="8" cy="8" r="8" fill="#D9D9D9"/>
</mask>
<g mask="url(#mask0_4872_36890)">
<path d="M16.0117 -0.960022H0.0117188V2.23998H16.0117V-0.960022Z" fill="#EB5757"/>
<path d="M16.0117 2.23993H0.0117188V5.11993H16.0117V2.23993Z" fill="#F2994A"/>
<path d="M16.0117 5.12H0.0117188V7.99999H16.0117V5.12Z" fill="#F6C000"/>
<path d="M16.0117 8H0.0117188V10.88H16.0117V8Z" fill="#34C77B"/>
<path d="M16.0117 10.88H0.0117188V13.76H16.0117V10.88Z" fill="#2081E2"/>
<path d="M16.0117 13.7601H0.0117188V16.9601H16.0117V13.7601Z" fill="#5D32E9"/>
<path d="M3.95821 8.26888L3.99272 8.21463L6.07384 4.95898C6.10426 4.91132 6.17576 4.91624 6.19877 4.96802C6.54645 5.7472 6.84645 6.71626 6.7059 7.31955C6.6459 7.56778 6.48152 7.90394 6.29658 8.21463C6.27275 8.25984 6.24645 8.30423 6.2185 8.34696C6.20534 8.36669 6.18315 8.37819 6.15931 8.37819H4.01902C3.96149 8.37819 3.92779 8.31573 3.95821 8.26888Z" fill="white"/>
<path d="M13.2342 8.87371V9.38906C13.2342 9.41864 13.2161 9.44494 13.1898 9.45645C13.0287 9.52549 12.4772 9.77864 12.2479 10.0976C11.6627 10.9121 11.2156 12.0768 10.2161 12.0768H6.04645C4.56865 12.0768 3.37109 10.8751 3.37109 9.39234V9.34467C3.37109 9.30521 3.40314 9.27317 3.4426 9.27317H5.76701C5.81303 9.27317 5.84673 9.3159 5.84263 9.3611C5.82618 9.51233 5.85413 9.66686 5.92564 9.80741C6.06372 10.0877 6.34975 10.2628 6.65879 10.2628H7.80949V9.3644H6.67194C6.61359 9.3644 6.57908 9.29699 6.61277 9.24933C6.62509 9.23042 6.63908 9.2107 6.65386 9.18851C6.76154 9.03563 6.91524 8.7981 7.06812 8.52768C7.1725 8.34522 7.27359 8.15042 7.35497 7.9548C7.37141 7.91946 7.38455 7.88328 7.3977 7.84794C7.41989 7.78547 7.44292 7.72712 7.45935 7.66877C7.4758 7.61944 7.48893 7.56766 7.50209 7.51917C7.54073 7.35313 7.55716 7.17725 7.55716 6.99478C7.55716 6.92328 7.55388 6.84848 7.5473 6.77698C7.54401 6.6989 7.53415 6.6208 7.52428 6.54272C7.5177 6.47368 7.50538 6.40546 7.49223 6.33395C7.4758 6.22957 7.45277 6.12601 7.42647 6.02161L7.41743 5.98218C7.3977 5.91066 7.38127 5.84245 7.35826 5.77094C7.29332 5.54654 7.21853 5.32792 7.13962 5.12326C7.11085 5.04189 7.07797 4.96381 7.04509 4.88573C6.99661 4.76819 6.94729 4.66134 6.90209 4.56024C6.87908 4.51421 6.85935 4.47229 6.83962 4.42955C6.81743 4.38106 6.79442 4.33256 6.7714 4.28654C6.75497 4.2512 6.73605 4.21832 6.7229 4.18544L6.58236 3.92571C6.56263 3.89037 6.59551 3.84845 6.63413 3.85914L7.51361 4.09749H7.51607C7.5177 4.09749 7.51853 4.09832 7.51935 4.09832L7.63524 4.13037L7.76265 4.16654L7.80949 4.17968V3.65694C7.80949 3.40461 8.01169 3.19995 8.26156 3.19995C8.38649 3.19995 8.49991 3.25091 8.58129 3.33392C8.66265 3.41694 8.71361 3.53037 8.71361 3.65694V4.43285L8.80732 4.45914C8.81471 4.46162 8.8221 4.4649 8.82868 4.46982C8.8517 4.48709 8.88457 4.51256 8.92649 4.54381C8.95937 4.5701 8.99471 4.60216 9.03745 4.63504C9.1221 4.70325 9.22321 4.7912 9.33417 4.8923C9.36375 4.91778 9.39252 4.94408 9.41882 4.97038C9.56185 5.10354 9.72212 5.2597 9.875 5.4323C9.91773 5.4808 9.95965 5.53011 10.0024 5.58189C10.0451 5.6345 10.0903 5.68627 10.1298 5.73806C10.1816 5.8071 10.2375 5.87861 10.286 5.95341C10.309 5.98875 10.3353 6.02491 10.3575 6.06026C10.4199 6.15477 10.475 6.25259 10.5276 6.3504C10.5498 6.3956 10.5728 6.44491 10.5925 6.49341C10.6509 6.62409 10.6969 6.75725 10.7265 6.8904C10.7355 6.91917 10.7421 6.9504 10.7454 6.97835V6.98493C10.7553 7.02437 10.7586 7.06629 10.7618 7.10902C10.775 7.24547 10.7684 7.3819 10.7388 7.51917C10.7265 7.57753 10.7101 7.63259 10.6903 7.69096C10.6706 7.74685 10.6509 7.8052 10.6254 7.86027C10.5761 7.97451 10.5177 8.08877 10.4487 8.19562C10.4265 8.23507 10.4002 8.27699 10.3739 8.31645C10.3451 8.35835 10.3155 8.39781 10.2892 8.43645C10.2531 8.48576 10.2145 8.53753 10.175 8.58357C10.1397 8.63206 10.1035 8.68056 10.064 8.7233C10.009 8.78822 9.95636 8.84987 9.90129 8.90906C9.86842 8.94768 9.83308 8.98714 9.7969 9.02248C9.76157 9.06192 9.7254 9.09726 9.69252 9.13014C9.63746 9.18522 9.59143 9.22795 9.55279 9.2633L9.46239 9.34632C9.44924 9.35782 9.43198 9.3644 9.4139 9.3644H8.71361V10.2628H9.59471C9.79197 10.2628 9.97938 10.1929 10.1306 10.0647C10.1824 10.0195 10.4084 9.82385 10.6755 9.52878C10.6846 9.51891 10.6961 9.51152 10.7093 9.50824L13.143 8.80467C13.1882 8.79152 13.2342 8.82603 13.2342 8.87371Z" fill="white"/>
</g>
</svg>
