<svg width="20" height="21" viewBox="0 0 20 21" fill="none" xmlns="http://www.w3.org/2000/svg">
<path d="M10 0.8125C4.64844 0.8125 0.3125 5.1875 0.3125 10.5C0.3125 15.8516 4.64844 20.1875 10 20.1875C15.3125 20.1875 19.6875 15.8516 19.6875 10.5C19.6875 5.1875 15.3125 0.8125 10 0.8125ZM10 17.6875C6.01562 17.6875 2.8125 14.4844 2.8125 10.5C2.8125 6.55469 6.01562 3.3125 10 3.3125C13.9453 3.3125 17.1875 6.55469 17.1875 10.5C17.1875 14.4844 13.9453 17.6875 10 17.6875ZM10 5.5C7.22656 5.5 5 7.76562 5 10.5C5 13.2734 7.22656 15.5 10 15.5C12.7344 15.5 15 13.2734 15 10.5C15 7.76562 12.7344 5.5 10 5.5ZM10 13C8.59375 13 7.5 11.9062 7.5 10.5C7.5 9.13281 8.59375 8 10 8C11.3672 8 12.5 9.13281 12.5 10.5C12.5 11.9062 11.3672 13 10 13Z" fill="#12DCF6"/>
</svg>
