<svg width="14" height="13" viewBox="0 0 14 13" fill="none" xmlns="http://www.w3.org/2000/svg">
<path d="M7 4.25C5.75781 4.25 4.75 5.28125 4.75 6.5C4.75 7.74219 5.75781 8.75 7 8.75C8.21875 8.75 9.25 7.74219 9.25 6.5C9.25 5.28125 8.21875 4.25 7 4.25ZM12.7656 6.14844L10.5391 5.04688L11.3359 2.67969C11.4297 2.375 11.125 2.07031 10.8203 2.16406L8.45312 2.96094L7.35156 0.734375C7.21094 0.429688 6.76562 0.429688 6.625 0.734375L5.52344 2.96094L3.15625 2.16406C2.85156 2.07031 2.54688 2.375 2.64062 2.67969L3.4375 5.04688L1.21094 6.14844C0.90625 6.28906 0.90625 6.73438 1.21094 6.875L3.4375 7.97656L2.64062 10.3438C2.54688 10.6484 2.85156 10.9531 3.15625 10.8594L5.52344 10.0625L6.625 12.2891C6.76562 12.5938 7.21094 12.5938 7.35156 12.2891L8.45312 10.0625L10.8203 10.8594C11.125 10.9531 11.4297 10.6484 11.3359 10.3438L10.5391 7.97656L12.7656 6.875C13.0703 6.73438 13.0703 6.28906 12.7656 6.14844ZM9.10938 8.63281C7.9375 9.80469 6.03906 9.80469 4.86719 8.63281C3.69531 7.46094 3.69531 5.5625 4.86719 4.39062C6.03906 3.21875 7.9375 3.21875 9.10938 4.39062C10.2812 5.5625 10.2812 7.46094 9.10938 8.63281Z" fill="#FDCC6A"/>
</svg>
