<svg width="15" height="15" viewBox="0 0 15 15" fill="none" xmlns="http://www.w3.org/2000/svg">
<path d="M7.5 0.96875C3.75391 0.96875 0.71875 4.03125 0.71875 7.75C0.71875 11.4961 3.75391 14.5312 7.5 14.5312C11.2188 14.5312 14.2812 11.4961 14.2812 7.75C14.2812 4.03125 11.2188 0.96875 7.5 0.96875ZM7.5 12.7812C4.71094 12.7812 2.46875 10.5391 2.46875 7.75C2.46875 4.98828 4.71094 2.71875 7.5 2.71875C10.2617 2.71875 12.5312 4.98828 12.5312 7.75C12.5312 10.5391 10.2617 12.7812 7.5 12.7812ZM7.5 4.25C5.55859 4.25 4 5.83594 4 7.75C4 9.69141 5.55859 11.25 7.5 11.25C9.41406 11.25 11 9.69141 11 7.75C11 5.83594 9.41406 4.25 7.5 4.25ZM7.5 9.5C6.51562 9.5 5.75 8.73438 5.75 7.75C5.75 6.79297 6.51562 6 7.5 6C8.45703 6 9.25 6.79297 9.25 7.75C9.25 8.73438 8.45703 9.5 7.5 9.5Z" fill="#7E96B8"/>
</svg>
