<svg width="12" height="12" viewBox="0 0 12 12" fill="none" xmlns="http://www.w3.org/2000/svg">
<path d="M6 0.1875C2.78906 0.1875 0.1875 2.8125 0.1875 6C0.1875 9.21094 2.78906 11.8125 6 11.8125C9.1875 11.8125 11.8125 9.21094 11.8125 6C11.8125 2.8125 9.1875 0.1875 6 0.1875ZM6 2.76562C6.53906 2.76562 6.98438 3.21094 6.98438 3.75C6.98438 4.3125 6.53906 4.73438 6 4.73438C5.4375 4.73438 5.01562 4.3125 5.01562 3.75C5.01562 3.21094 5.4375 2.76562 6 2.76562ZM7.3125 8.71875C7.3125 8.88281 7.17188 9 7.03125 9H4.96875C4.80469 9 4.6875 8.88281 4.6875 8.71875V8.15625C4.6875 8.01562 4.80469 7.875 4.96875 7.875H5.25V6.375H4.96875C4.80469 6.375 4.6875 6.25781 4.6875 6.09375V5.53125C4.6875 5.39062 4.80469 5.25 4.96875 5.25H6.46875C6.60938 5.25 6.75 5.39062 6.75 5.53125V7.875H7.03125C7.17188 7.875 7.3125 8.01562 7.3125 8.15625V8.71875Z" fill="#f1f1f1"/>
</svg>
