<svg width="18" height="21" viewBox="0 0 18 21" fill="none" xmlns="http://www.w3.org/2000/svg">
<path d="M0.25 18.625C0.25 19.6797 1.07031 20.5 2.125 20.5H15.875C16.8906 20.5 17.75 19.6797 17.75 18.625V8H0.25V18.625ZM2.75 11.125C2.75 10.8125 3.02344 10.5 3.375 10.5H14.625C14.9375 10.5 15.25 10.8125 15.25 11.125V13.625C15.25 13.9766 14.9375 14.25 14.625 14.25H3.375C3.02344 14.25 2.75 13.9766 2.75 13.625V11.125ZM15.875 3H14V1.125C14 0.8125 13.6875 0.5 13.375 0.5H12.125C11.7734 0.5 11.5 0.8125 11.5 1.125V3H6.5V1.125C6.5 0.8125 6.1875 0.5 5.875 0.5H4.625C4.27344 0.5 4 0.8125 4 1.125V3H2.125C1.07031 3 0.25 3.85938 0.25 4.875V6.75H17.75V4.875C17.75 3.85938 16.8906 3 15.875 3Z" fill="#12DCF6"/>
</svg>
