<svg width="51" height="46" viewBox="0 0 51 46" fill="none" xmlns="http://www.w3.org/2000/svg">
<path d="M0.000137569 9.03479C2.13453 9.81139 4.24925 10.6624 6.41065 11.3353C7.62561 11.7122 8.83283 11.3732 9.92912 10.6185C12.16 9.08324 14.4635 7.6945 16.9568 6.71704C19.0971 5.87765 21.1281 6.08761 23.0293 7.47885C23.2688 7.65424 23.4737 7.88695 23.7378 8.13421C22.6629 8.78206 21.6411 9.37441 20.6419 10.0095C19.4385 10.7734 18.2354 11.5391 17.0678 12.3632C14.933 13.8723 14.1031 16.476 14.9244 18.9514C15.6891 21.2596 17.9983 22.9274 20.0341 22.5685C20.7106 22.4472 21.3832 22.1938 22.0172 21.8947C23.644 21.1279 25.2451 20.3003 26.8586 19.4991C28.42 18.7232 29.6602 18.9732 30.8869 20.303C34.0228 23.7054 37.1568 27.11 40.2964 30.5106C41.2445 31.5383 41.3017 33.0608 40.4155 34.0474C39.5155 35.0496 38.1149 34.9978 37.1258 33.933C36.1126 32.8402 35.1023 31.744 34.068 30.6755C33.8625 30.4587 33.6396 29.9851 33.2781 30.3441C33.2021 30.423 33.3932 30.9644 33.5753 31.1803C34.5236 32.3145 35.5046 33.4157 36.4818 34.5214C37.6524 35.8431 37.4088 37.8207 35.9768 38.573C35.0668 39.0528 34.0521 38.7921 33.2595 37.9299C32.0127 36.5812 30.7571 35.2421 29.4928 33.9127C29.3308 33.7403 29.1069 33.632 28.8515 33.4498C28.7408 34.0633 29.0518 34.352 29.2919 34.637C30.226 35.7364 31.1795 36.8162 32.1314 37.8974C32.5604 38.3815 32.8545 38.9195 32.8719 39.6112C32.8955 40.6558 32.3924 41.5373 31.5355 41.9358C30.6642 42.3423 29.7084 42.1075 29.0284 41.345C27.9488 40.146 26.865 38.9516 25.777 37.7616C25.602 37.5717 25.4182 37.381 25.2094 37.2409C25.094 37.1629 24.9222 37.1893 24.7757 37.1686C24.7778 37.3319 24.733 37.5221 24.7931 37.6551C24.8862 37.861 25.0402 38.0394 25.1886 38.2093C26.0329 39.174 26.9044 40.1173 27.7333 41.1028C28.08 41.5105 28.2853 42.0368 28.3137 42.5912C28.3421 43.1456 28.1919 43.6934 27.889 44.1405C27.1305 45.2644 25.6547 45.4701 24.6803 44.5513C24.2445 44.1382 23.8565 43.6617 23.4686 43.1921C23.39 43.0961 23.3795 42.8989 23.3925 42.7563C23.625 40.1121 22.3918 37.8951 20.1559 36.9027C19.9755 36.8249 19.7932 36.5997 19.7277 36.3952C19.2032 34.7712 18.2377 33.6165 16.7706 32.9455C16.5906 32.8625 16.4102 32.64 16.3382 32.4398C15.8015 30.9259 14.8643 29.8584 13.4844 29.2315C13.3011 29.1482 13.1022 28.9371 13.0372 28.7365C12.0905 25.8687 9.43811 24.6192 6.77085 25.3091C4.89849 25.7932 3.59918 27.0327 2.85765 28.9637C2.83804 29.0131 2.81495 29.0607 2.78858 29.1061C2.77058 29.1353 2.7463 29.1612 2.69942 29.2156C1.80908 28.8798 0.904085 28.539 0.000346681 28.1958C-7.19309e-05 21.808 -7.17677e-05 15.421 0.000137569 9.03479V9.03479ZM51 27.6533C49.2206 28.0054 47.451 28.4003 45.6651 28.6869C44.4122 28.8898 43.3281 28.4242 42.4132 27.4378C38.9843 23.7409 35.5366 20.0653 32.1075 16.3698C31.0638 15.2449 29.8375 14.9778 28.5495 15.6266C26.5836 16.6191 24.6711 17.7421 22.7367 18.8135C22.1463 19.1395 21.5636 19.4853 20.9718 19.8087C19.5345 20.5942 17.8428 20.0057 17.0874 18.4641C16.3497 16.9614 16.8476 15.0968 18.2291 14.2495C22.2706 11.7691 26.3157 9.29639 30.3595 6.82122C30.3741 6.81189 30.3882 6.80439 30.4022 6.79392C32.1314 5.56692 33.7509 5.80395 35.2855 7.21657C37.0067 8.80276 38.7353 10.3801 40.4526 11.9713C41.2952 12.7536 42.2479 13.0054 43.3207 12.7515C45.7343 12.1808 48.145 11.6046 50.5571 11.0343C50.7003 11.0004 50.8506 10.9993 51 10.982V27.6533V27.6533ZM15.1609 41.4931C14.6552 41.6389 14.2306 41.7929 13.7971 41.8778C13.0978 42.0188 12.399 42.042 11.8134 41.4908C11.1648 40.8787 10.9233 40.1212 11.1924 39.2079C11.322 38.7711 11.4593 38.3339 11.6165 37.8185C11.0989 37.9622 10.6589 38.1003 10.2131 38.1986C8.6116 38.5571 7.3845 37.056 7.89979 35.3754C8.01992 34.9823 8.1522 34.5972 8.3121 34.1029C7.99732 34.1884 7.74679 34.235 7.51071 34.3258C5.2409 35.1909 4.10128 33.14 4.48241 31.3284C4.85893 29.5356 6.22856 27.9817 7.7987 27.7376C9.62229 27.4535 11.1083 29.085 10.8172 31.0524C10.7969 31.1928 10.7751 31.3336 10.7422 31.5547C11.7533 31.4014 12.6922 31.4871 13.4369 32.294C14.1958 33.1159 14.236 34.1395 14.0654 35.2626C15.1429 35.1538 16.1366 35.2346 16.871 36.1788C17.5921 37.1083 17.6172 38.1706 17.3112 39.3098C17.7076 39.2686 18.0492 39.1927 18.3888 39.2031C20.1995 39.2548 21.3686 41.0352 20.8893 42.9895C20.3792 45.0665 17.6741 46.5677 15.8342 45.7929C14.7632 45.3418 14.2565 44.2369 14.6037 43.037C14.7473 42.5418 14.9516 42.0684 15.1609 41.4936V41.4931V41.4931Z" fill="url(#paint0_linear_324_1200)"/>
<defs>
<linearGradient id="paint0_linear_324_1200" x1="2.98052" y1="-10.8" x2="61.5422" y2="-2.84928" gradientUnits="userSpaceOnUse">
<stop stop-color="#9D2BBD"/>
<stop offset="0.479167" stop-color="#5632B3"/>
<stop offset="1" stop-color="#1D91BF"/>
</linearGradient>
</defs>
</svg>
