<svg width="20" height="17" viewBox="0 0 20 17" fill="none" xmlns="http://www.w3.org/2000/svg">
<path opacity="0.4" d="M19.1667 2.54129C18.451 2.86415 17.6896 3.07615 16.909 3.16988C17.7356 2.66415 18.3497 1.87906 18.638 0.959543C17.8682 1.42393 17.0225 1.75158 16.1391 1.92775C15.7759 1.53091 15.333 1.21373 14.8389 0.996552C14.3448 0.779372 13.8102 0.666993 13.2697 0.666626C11.0991 0.666626 9.33896 2.45579 9.33896 4.66375C9.33896 4.97725 9.3725 5.28125 9.43958 5.57417C6.17167 5.40713 3.27431 3.81667 1.33368 1.39654C0.983754 2.00987 0.800478 2.70275 0.801805 3.40738C0.801805 4.79358 1.4966 6.0175 2.55076 6.73475C1.92512 6.71412 1.31392 6.54292 0.769861 6.236V6.28508C0.769861 8.22229 2.1251 9.83808 3.92437 10.2038C3.5877 10.2984 3.23932 10.3459 2.88937 10.3448C2.63621 10.3448 2.38865 10.321 2.14906 10.2735C2.64899 11.8616 4.10087 13.0174 5.82187 13.0483C5.01298 13.6971 4.08078 14.1781 3.08066 14.4628C2.08054 14.7474 1.0329 14.8299 0 14.7053C1.78881 15.8754 3.88472 16.4995 6.02792 16.5C13.2617 16.5 17.2165 10.4105 17.2165 5.12767C17.2165 4.9535 17.2125 4.78013 17.2061 4.60992C17.9743 4.04625 18.6412 3.34325 19.1667 2.54129Z" fill="#A0B3EE"/>
</svg>
